<?xml version="1.0" encoding="UTF-8"?>
<svg version="1.1" xmlns="http://www.w3.org/2000/svg" width="426" height="585">
<path d="M0 0 C1.45227376 -0.00417525 2.90454426 -0.00965381 4.35680872 -0.01631981 C8.33896757 -0.03076813 12.32091934 -0.02653166 16.3030895 -0.019153 C20.60106623 -0.01442212 24.8989981 -0.02693044 29.19696045 -0.03717041 C37.61356713 -0.05436513 46.03009918 -0.05519705 54.44671886 -0.04995751 C61.2876433 -0.04591595 68.12854569 -0.0473592 74.96946907 -0.05270576 C75.94313801 -0.05345419 76.91680696 -0.05420261 77.91998102 -0.05497371 C79.89798844 -0.05650519 81.87599585 -0.05804353 83.85400326 -0.05958868 C102.40256747 -0.07331607 120.9510895 -0.06787427 139.49965275 -0.05640347 C156.4684771 -0.04647009 173.43719242 -0.05941314 190.40599995 -0.08333766 C207.83106276 -0.10772031 225.25607478 -0.11733862 242.68115431 -0.11068493 C252.46344235 -0.10719095 262.24564653 -0.10943661 272.02792168 -0.12693596 C280.35503571 -0.14164747 288.68200682 -0.1423071 297.00911801 -0.12486505 C301.25723126 -0.11634414 305.50508907 -0.11423204 309.75318909 -0.1295166 C313.64370164 -0.14334125 317.5337394 -0.13862952 321.42422432 -0.11927737 C322.82993408 -0.11551019 324.23568166 -0.11846007 325.64135777 -0.12888902 C333.47564645 -0.18286972 339.1891432 0.06920239 345.84877014 4.38768005 C350.11958084 8.79625884 349.97454245 13.41048793 349.98299122 19.32870293 C349.98534345 20.03050743 349.98769568 20.73231193 349.99011919 21.45538324 C349.99680249 23.81872576 349.99635117 26.18201321 349.99594116 28.54536438 C349.99924018 30.25220865 350.00296583 31.95905214 350.00708264 33.66589463 C350.01710601 38.36552629 350.02081996 43.06514517 350.02347195 47.76478601 C350.02737387 52.82964131 350.03695212 57.89448648 350.04568481 62.95933533 C350.06544985 75.19361695 350.07551436 87.4278994 350.0844126 99.662193 C350.08879444 105.42043212 350.09416142 111.17867033 350.09940147 116.93690872 C350.1164119 136.07194516 350.13090768 155.20698101 350.13815022 174.34202385 C350.14006017 179.30792619 350.14198049 184.27382852 350.14393616 189.23973083 C350.1444199 190.47400948 350.14490364 191.70828813 350.14540204 192.97996916 C350.15370838 212.98958943 350.17905632 232.99915003 350.21151683 253.00874422 C350.24455481 273.54122636 350.26259592 294.07367813 350.26579446 314.60618699 C350.26796231 326.13897853 350.27675145 337.67168301 350.30225563 349.2044487 C350.32391788 359.02266753 350.33203506 368.84077813 350.32228885 378.65901814 C350.31773148 383.67038328 350.31971369 388.6815249 350.33905029 393.69285965 C350.35659196 398.27849011 350.35575786 402.86373252 350.340153 407.44936658 C350.33776322 409.11018192 350.34217098 410.7710235 350.35398165 412.43179856 C350.36902682 414.68666506 350.35948098 416.94014337 350.34375477 419.1949749 C350.34473158 420.44816202 350.34570839 421.70134914 350.34671479 422.99251163 C349.61017622 428.0145005 346.82172872 432.22571531 342.84877014 435.38768005 C340.44726137 436.68323084 338.05697288 437.89864421 335.59877014 439.07518005 C330.13975686 441.7401031 324.74699628 444.48399566 319.41127014 447.38768005 C313.43776539 450.62187909 307.35097831 453.53619545 301.18714905 456.38768005 C295.83710973 458.8795792 290.62946291 461.57442296 285.44252014 464.38768005 C280.29429161 467.1740363 275.07360385 469.79278524 269.82679749 472.38768005 C265.30491018 474.63381762 260.84928964 476.98071818 256.41127014 479.38768005 C251.2182807 482.19724852 245.9586326 484.787187 240.59877014 487.26268005 C233.94825559 490.33976142 227.46600115 493.65476493 221.0035553 497.10716248 C211.5645324 502.12040773 201.98163479 506.84717307 192.40516663 511.59080505 C191.08673673 512.24544714 189.76845664 512.90039102 188.45033264 513.5556488 C187.80978439 513.8733876 187.16923615 514.1911264 186.50927734 514.51849365 C181.13775579 517.20115124 175.89274073 520.07980433 170.66810608 523.03953552 C165.8827464 525.32778943 161.97024887 525.69369132 156.84877014 524.38768005 C153.1595707 522.75776256 149.78430058 520.95986555 146.30580139 518.91893005 C140.36765252 515.44624232 134.14712139 512.49170862 127.9839325 509.44407654 C124.59056181 507.7651668 121.20219938 506.0762216 117.81361389 504.38768005 C117.15190689 504.05796204 116.49019989 503.72824402 115.80844116 503.38853455 C114.47019513 502.72167364 113.13199418 502.05472224 111.7938385 501.38768005 C110.45402495 500.72029877 109.11385454 500.05363344 107.77333069 499.38768005 C99.79096028 495.42118858 91.85901386 491.38189264 84.01391602 487.14927673 C78.58403818 484.22187516 73.07991196 481.45641904 67.55189514 478.7197113 C37.67743935 463.90795084 37.67743935 463.90795084 28.78627014 459.07518005 C23.7945154 456.37342805 18.74789425 453.89291332 13.59877014 451.51268005 C7.23991426 448.56958078 0.99021933 445.4575569 -5.21372986 442.20018005 C-5.98684509 441.79622009 -6.75996033 441.39226013 -7.5565033 440.97605896 C-9.76936922 439.80445714 -11.964194 438.60677298 -14.15122986 437.38768005 C-15.25507019 436.77545593 -15.25507019 436.77545593 -16.38121033 436.15086365 C-17.08777771 435.73788025 -17.79434509 435.32489685 -18.52232361 434.8993988 C-19.14937195 434.53676941 -19.77642029 434.17414001 -20.42247009 433.80052185 C-23.72963918 431.09771328 -25.04367576 428.32486352 -25.52842802 424.10092604 C-25.52997171 422.20934517 -25.52997171 422.20934517 -25.53154659 420.27955055 C-25.53620651 419.57182668 -25.54086643 418.86410281 -25.54566756 418.13493276 C-25.5576431 415.75729351 -25.54821254 413.38022301 -25.53890991 411.00257874 C-25.54308172 409.28320701 -25.5485584 407.56383804 -25.55522972 405.8444742 C-25.56972324 401.11477431 -25.56542743 396.38524811 -25.55806291 391.65553856 C-25.55334316 386.55658696 -25.56583053 381.45767358 -25.57608032 376.35873413 C-25.59329737 366.36737185 -25.59410228 356.37607239 -25.58886742 346.38469912 C-25.58482973 338.26511513 -25.5862645 330.14554974 -25.59161568 322.02596664 C-25.59273831 320.29402595 -25.59273831 320.29402595 -25.59388362 318.52709656 C-25.59541506 316.18163535 -25.59695341 313.83617413 -25.59849859 311.49071293 C-25.61223425 289.48328516 -25.60677855 267.47589293 -25.59531338 245.46846597 C-25.58538081 225.32701428 -25.59832021 205.18565446 -25.62224757 185.04421695 C-25.64661999 164.37269844 -25.65625095 143.70122274 -25.64959484 123.02969015 C-25.64609837 111.42032092 -25.64836284 99.81102236 -25.66584587 88.20166397 C-25.68054467 78.31834196 -25.68123376 68.43514036 -25.66377496 58.55182077 C-25.65524327 53.5079297 -25.65316824 48.46425394 -25.66842651 43.42037392 C-25.68221915 38.80387733 -25.67758056 34.18778161 -25.65818728 29.57130854 C-25.65441023 27.90041703 -25.65739808 26.22949383 -25.66779893 24.55863042 C-25.68093051 22.28776708 -25.66942149 20.01829512 -25.65180111 17.74749184 C-25.65169377 16.48611322 -25.65158644 15.2247346 -25.65147585 13.92513239 C-25.01872047 9.45064974 -23.68633011 7.11700264 -21.15122986 3.38768005 C-14.79271751 -0.85777329 -7.39694728 -0.03453398 0 0 Z M12.84877014 38.38768005 C11.9996606 65.1964164 11.9996606 65.1964164 11.71595764 91.99705505 C11.71475357 93.92297894 11.71322188 95.84890264 11.71141052 97.77482605 C11.70760471 104.22912426 11.71543487 110.68338806 11.72377014 117.13768005 C11.72606137 119.44602961 11.72829828 121.75437922 11.73048401 124.06272888 C11.74555635 138.57646749 11.77455851 153.0901493 11.80855179 167.60385323 C11.83316792 178.17949554 11.85322178 188.75513394 11.86769104 199.33079529 C11.86923624 200.45907202 11.87078144 201.58734876 11.87237346 202.7498157 C11.875562 205.08538532 11.87874976 207.42095494 11.88193679 209.75652456 C11.91458896 233.48264027 11.96538503 257.20865418 12.03588676 280.93468857 C12.07350418 293.70918276 12.10452082 306.48362047 12.11921692 319.25816345 C12.13204132 330.30539911 12.15883718 341.3524945 12.20318258 352.39965034 C12.22583065 358.14801819 12.24170369 363.89621393 12.24068832 369.64463043 C12.23995033 374.97474987 12.25760102 380.3044788 12.28994584 385.63449717 C12.29848004 387.58250733 12.300159 389.53056106 12.29457068 391.47858191 C12.28798613 394.12310417 12.30570688 396.76635723 12.32978821 399.41075134 C12.32202783 400.18345423 12.31426745 400.95615711 12.30627191 401.75227523 C12.35377953 405.94340761 12.35377953 405.94340761 14.6731987 409.27613068 C15.39113728 409.64294197 16.10907585 410.00975327 16.84877014 410.38768005 C18.49619202 411.25973083 18.49619202 411.25973083 20.17689514 412.1493988 C21.4822078 412.79534056 22.78962755 413.43703622 24.09877014 414.07518005 C25.54153148 414.78731225 26.98423831 415.49955491 28.42689514 416.2118988 C29.1623053 416.5733197 29.89771545 416.9347406 30.65541077 417.30711365 C34.06107085 418.98492437 37.45466868 420.68664219 40.84877014 422.38768005 C44.81025476 424.37107719 48.77299769 426.35167308 52.74330139 428.31736755 C59.99603686 431.91472434 67.19316927 435.60043686 74.34877014 439.38768005 C82.78609031 443.85250619 91.29485439 448.15160343 99.84877014 452.38768005 C103.20451485 454.05118823 106.55872388 455.71773487 109.91127014 457.38768005 C110.76237366 457.81162048 111.61347717 458.23556091 112.4903717 458.67234802 C118.1589994 461.50884295 123.75309077 464.46016447 129.32411194 467.48265076 C134.7534633 470.39864611 140.31042218 473.01331362 145.91346741 475.57713318 C150.43694547 477.6609414 154.6861738 479.93198043 158.79408264 482.77049255 C164.28819167 484.42081428 170.40956877 480.31243646 175.22377014 477.82518005 C175.91148499 477.47584412 176.59919983 477.12650818 177.30775452 476.7665863 C183.06786325 473.8265851 188.77765901 470.79142891 194.48426819 467.74925232 C203.000449 463.21982495 211.64785704 458.95865297 220.29408264 454.68455505 C226.97185482 451.36890947 233.57867052 447.95005777 240.16127014 444.45018005 C246.15556882 441.26684824 252.18555639 438.23006883 258.34877014 435.38768005 C267.70121609 431.06973159 276.77110287 426.2514875 285.84877014 421.38768005 C287.90168999 420.28919197 289.95472253 419.19091563 292.00794983 418.09300232 C293.25501474 417.42612012 294.50177123 416.7586608 295.7481842 416.09056091 C300.15311217 413.73668513 304.60057339 411.48374943 309.09095764 409.2978363 C310.8247968 408.51258688 310.8247968 408.51258688 311.84877014 407.38768005 C311.94652076 405.42773494 311.97248296 403.46420357 311.97181797 401.50182247 C311.97380902 400.21445846 311.97580007 398.92709444 311.97785145 397.60071939 C311.97499785 396.15339893 311.97205224 394.70607865 311.96902466 393.25875854 C311.96946023 391.73584397 311.97033487 390.21292947 311.97161382 388.69001538 C311.97386162 384.48508451 311.96983363 380.28017887 311.96483576 376.07525122 C311.96053551 371.5483008 311.96197738 367.02135191 311.96273804 362.49440002 C311.96326354 354.64448138 311.96011397 346.79457102 311.9545002 338.94465446 C311.94638879 327.59485582 311.94377035 316.24506121 311.94251221 304.89525998 C311.94032112 286.48298172 311.9336595 268.07070787 311.92420959 249.65843201 C311.91503694 231.76780723 311.90796685 213.87718366 311.90370178 195.98655701 C311.90343378 194.87336639 311.90316579 193.76017577 311.90288967 192.6132521 C311.90081037 183.90795789 311.8988534 175.20266366 311.89693511 166.49736941 C311.88749368 123.79413557 311.86737721 81.09091278 311.84877014 38.38768005 C213.17877014 38.38768005 114.50877014 38.38768005 12.84877014 38.38768005 Z " fill="#292929" transform="translate(50.15122985839844,31.612319946289063)"/>
<path d="M0 0 C8.07260599 2.46638666 15.64945195 5.87436468 23.3125 9.375 C25.80747729 10.51028409 28.30368484 11.64282251 30.80078125 12.7734375 C31.4089418 13.04913574 32.01710236 13.32483398 32.64369202 13.60888672 C37.5277159 15.81220453 42.46174589 17.87762442 47.4152832 19.91845703 C50.641667 21.26849767 53.78443773 22.73653011 56.9375 24.25 C63.10285354 27.17522161 69.34492121 29.89338272 75.625 32.5625 C82.41789043 35.44956907 89.1531774 38.40880607 95.8359375 41.54296875 C100.17964131 43.54321754 104.57368286 45.42232369 108.9675293 47.30932617 C112.34113747 48.77542121 115.65320794 50.30393498 118.91796875 52 C119.85491577 52.48641968 119.85491577 52.48641968 120.81079102 52.98266602 C122.51828247 53.88133363 124.21651828 54.79752473 125.9140625 55.71484375 C130.67523932 57.69766296 133.77038203 57.46235703 138.6015625 55.64575195 C139.94809804 55.02142368 141.28898985 54.38482641 142.625 53.73828125 C143.35609985 53.3963121 144.08719971 53.05434296 144.8404541 52.70201111 C146.41227554 51.96565701 147.98175304 51.22428258 149.54907227 50.47839355 C153.71956868 48.49451014 157.9076911 46.54842879 162.09375 44.59765625 C162.93683716 44.20359589 163.77992432 43.80953552 164.64855957 43.40353394 C172.20743509 39.87924616 179.83404068 36.53350821 187.5 33.25 C197.30910249 29.03955386 207.07950994 24.75761934 216.8125 20.375 C226.15076835 16.17157537 235.50022028 11.99643736 244.875 7.875 C245.89698486 7.42560059 246.91896973 6.97620117 247.97192383 6.51318359 C249.83281404 5.69626864 251.69463707 4.88147355 253.55761719 4.06933594 C255.08823479 3.39919349 256.61552488 2.72134072 258.13769531 2.03222656 C260.96229048 0.76816491 262.86280017 0 266 0 C266.16911063 5.63740431 266.32949232 11.27496867 266.48217773 16.9128418 C266.53518221 18.82631934 266.59047246 20.7397351 266.64819336 22.65307617 C266.80922798 28.01762957 266.91982854 33.37832802 266.96075439 38.74517822 C266.99456602 40.68779552 267.10321017 42.62884824 267.22607422 44.56787109 C267.27787066 47.47883127 267.23522209 49.36394985 266 52 C262.36506063 54.89686614 258.31275764 56.35028914 254 58 C252.07372874 58.83889038 250.16106556 59.70490675 248.24731445 60.57192993 C245.53692301 61.79423166 242.80971602 62.97633551 240.08203125 64.15942383 C238.0011632 65.06199547 235.92229918 65.96905576 233.84375 66.87695312 C226.7908917 69.95217022 219.72096395 72.97716554 212.60571289 75.90600586 C208.02208419 77.83041701 203.51420366 79.91911537 199 82 C191.22498835 85.57489744 183.39976305 89.02613496 175.54452515 92.42053223 C173.58498612 93.26729085 171.62607385 94.11548716 169.66723633 94.96386719 C163.58793586 97.59518328 157.50445759 100.21606686 151.41015625 102.8125 C149.94618408 103.43656738 149.94618408 103.43656738 148.45263672 104.07324219 C146.64664686 104.84181636 144.83971893 105.60819101 143.03173828 106.37207031 C139.24613346 107.75374202 139.24613346 107.75374202 136 110 C130.30907713 110.65445336 126.22909601 108.68421281 121.18359375 106.37890625 C120.33796875 106.00335098 119.49234375 105.62779572 118.62109375 105.24085999 C115.8885959 104.02482896 113.16315113 102.79379012 110.4375 101.5625 C108.56896504 100.72782924 106.69990465 99.89433371 104.83032227 99.06201172 C102.06681997 97.83138854 99.30373639 96.5999087 96.54258728 95.36401367 C89.09588547 92.03099906 81.61183188 88.79814406 74.08959961 85.63891602 C70.6960969 84.20289296 67.3764039 82.70647899 64.09765625 81.0234375 C61.29511771 79.59958628 58.48227381 78.35937338 55.5546875 77.21484375 C47.97202687 74.24639292 40.56434048 70.86950043 33.125 67.5625 C30.16998117 66.24969444 27.2142876 64.93842899 24.2578125 63.62890625 C23.54659241 63.31345856 22.83537231 62.99801086 22.1026001 62.67300415 C16.94338356 60.39340424 11.74748802 58.21844214 6.51123047 56.12084961 C-0.50547525 52.9890495 -0.50547525 52.9890495 -2 50 C-2.09991754 48.46863796 -2.1383184 46.93304005 -2.14526367 45.3984375 C-2.15164352 44.44404785 -2.15802338 43.4896582 -2.16459656 42.50634766 C-2.16570938 41.47300293 -2.1668222 40.4396582 -2.16796875 39.375 C-2.17129715 38.31716309 -2.17462555 37.25932617 -2.17805481 36.16943359 C-2.18312356 33.93001745 -2.18546315 31.69059375 -2.18530273 29.45117188 C-2.18749096 26.01419734 -2.20565216 22.57754276 -2.22460938 19.140625 C-2.22754288 16.9687511 -2.22952796 14.79687567 -2.23046875 12.625 C-2.23765427 11.59165527 -2.24483978 10.55831055 -2.25224304 9.49365234 C-2.24916641 8.5392627 -2.24608978 7.58487305 -2.24291992 6.6015625 C-2.24434494 5.75932129 -2.24576996 4.91708008 -2.24723816 4.04931641 C-2 2 -2 2 0 0 Z " fill="#292929" transform="translate(80,245)"/>
<path d="M0 0 C1.47949219 0.97265625 1.47949219 0.97265625 3 3 C3.27468993 5.88687824 3.37247247 8.55296098 3.328125 11.4375 C3.32625183 12.2728125 3.32437866 13.108125 3.32244873 13.96875 C3.31572281 15.74076311 3.30179757 17.51276123 3.28125 19.28466797 C3.25043666 21.96205877 3.24030863 24.63885662 3.234375 27.31640625 C3.21768689 31.49221605 3.15015241 35.66450679 3.04626465 39.83901978 C3.00538061 41.74867658 2.99863821 43.65899804 2.99707031 45.5690918 C2.91518117 48.22234403 2.80151578 50.47180799 2 53 C-0.56377304 55.10105999 -1.76731119 55.82034349 -4.75 56.8125 C-6.13172571 57.36013419 -7.5132327 57.90832053 -8.89453125 58.45703125 C-9.58885254 58.71436035 -10.28317383 58.97168945 -10.99853516 59.23681641 C-13.8859099 60.33780853 -16.65059764 61.66774178 -19.4375 63 C-29.36156856 67.57093798 -39.34529261 72.00072598 -49.51831055 75.98999023 C-51.93602387 76.97396269 -54.29886027 78.03348138 -56.66796875 79.12890625 C-64.72623856 82.81015139 -72.8664738 86.30169636 -81 89.8125 C-81.82159607 90.16760651 -82.64319214 90.52271301 -83.48968506 90.88858032 C-93.41141879 95.1768324 -103.33403901 99.46198152 -113.32104492 103.59667969 C-117.39059711 105.28774525 -121.35398335 107.12769001 -125.3125 109.0625 C-128.30939923 110.4272418 -129.85171029 110.99709236 -133.1875 111.0625 C-136.11570819 109.95628802 -138.85873792 108.62187428 -141.625 107.16015625 C-144.38187198 105.81346056 -147.18622196 104.75552971 -150.0625 103.6875 C-155.23588208 101.73428432 -160.21522375 99.54201927 -165.20166016 97.15576172 C-173.82425945 93.07386673 -182.62215888 89.37486214 -191.39038086 85.61914062 C-201.94135776 81.08826408 -201.94135776 81.08826408 -206.515625 78.7578125 C-209.73956474 77.1313855 -212.92606477 75.80605754 -216.3125 74.5625 C-221.26263202 72.7434374 -226.02066834 70.63820222 -230.80883789 68.43823242 C-234.37338173 66.8317197 -237.96577317 65.29662684 -241.56640625 63.7734375 C-242.88873668 63.21108986 -244.21100181 62.64858865 -245.53320312 62.0859375 C-247.56561553 61.22137615 -249.59903763 60.35968457 -251.63598633 59.50585938 C-253.63724873 58.66581745 -255.63337114 57.81447887 -257.62890625 56.9609375 C-259.3934314 56.21529541 -259.3934314 56.21529541 -261.19360352 55.45458984 C-264 54 -264 54 -266 51 C-266.24050903 48.77900696 -266.24050903 48.77900696 -266.22705078 46.16137695 C-266.22689972 45.1805867 -266.22674866 44.19979645 -266.22659302 43.18928528 C-266.21627045 42.13295395 -266.20594788 41.07662262 -266.1953125 39.98828125 C-266.1924826 38.90491989 -266.18965271 37.82155853 -266.18673706 36.70536804 C-266.17553091 33.24096692 -266.15042534 29.77682315 -266.125 26.3125 C-266.11497077 23.96549852 -266.10584482 21.618493 -266.09765625 19.27148438 C-266.07559016 13.51423493 -266.04210827 7.75713585 -266 2 C-261.66247399 0.97357292 -259.77510879 1.18083027 -255.75 3.1875 C-248.4362943 6.76861921 -241.00122682 10.01364376 -233.50610352 13.19506836 C-225.26692879 16.69425206 -217.10139143 20.2927491 -209.0078125 24.1171875 C-196.87004835 29.84491014 -184.62784828 35.34843792 -172.26953125 40.58203125 C-168.7321234 42.11617587 -165.238031 43.73279309 -161.75 45.375 C-159.16791789 46.58602279 -156.58459287 47.79434478 -154 49 C-152.86014648 49.53173828 -152.86014648 49.53173828 -151.69726562 50.07421875 C-149.30275903 51.18477103 -146.90225305 52.28131934 -144.5 53.375 C-143.7584668 53.72095215 -143.01693359 54.0669043 -142.25292969 54.42333984 C-134.5805312 57.95122337 -134.5805312 57.95122337 -126.3828125 57.11767578 C-123.28626338 55.7959654 -120.27026416 54.3625928 -117.25 52.875 C-115.19275434 51.89313276 -113.13546291 50.91136143 -111.078125 49.9296875 C-110.06355225 49.43887695 -109.04897949 48.94806641 -108.00366211 48.44238281 C-99.05815092 44.14667607 -89.95335909 40.23791852 -80.80664062 36.39453125 C-75.51737873 34.1496472 -70.3622227 31.73844856 -65.25390625 29.10644531 C-63.05699177 28.02797733 -60.85022013 27.11647132 -58.5625 26.25 C-52.63656416 23.95276221 -46.94205032 21.18355939 -41.21508789 18.43652344 C-31.1800712 13.62508477 -21.02460845 9.10903509 -10.8125 4.6875 C-9.76513672 4.23310547 -8.71777344 3.77871094 -7.63867188 3.31054688 C-5.09281552 2.20617996 -2.54658885 1.1026765 0 0 Z " fill="#292929" transform="translate(344,378)"/>
<path d="M0 0 C5.60060493 0.23978125 10.20198434 2.80809796 15.125 5.25 C16.82969621 6.07765178 18.53542443 6.90318139 20.2421875 7.7265625 C21.06299805 8.12262695 21.88380859 8.51869141 22.72949219 8.92675781 C26.4466667 10.68382224 30.24565124 12.217945 34.0546875 13.76171875 C38.19186466 15.50108899 42.23721141 17.42735409 46.29394531 19.34423828 C50.49359902 21.3199796 54.72506252 23.1906303 59 25 C64.3640678 27.27148793 69.63788427 29.69107896 74.90234375 32.18359375 C80.37964107 34.75457004 85.93081938 37.13580524 91.5 39.5 C97.71137173 42.13870521 103.89182139 44.81723655 110 47.6875 C111.7634375 48.51314453 111.7634375 48.51314453 113.5625 49.35546875 C115.90849527 50.47781421 118.24152475 51.62756898 120.5625 52.80078125 C121.696875 53.36152344 122.83125 53.92226563 124 54.5 C124.99 55.0053125 125.98 55.510625 127 56.03125 C134.05477997 58.30935603 140.18587296 54.84460243 146.5 51.875 C147.38292725 51.46902588 148.26585449 51.06305176 149.17553711 50.64477539 C153.11802018 48.82761242 157.04607027 46.9801125 160.97265625 45.12890625 C168.67917138 41.49787137 176.43841326 38.10749112 184.30493164 34.83959961 C188.27598364 33.18038681 192.17893189 31.48722216 196 29.5 C200.61824238 27.09819157 205.38412282 25.12056735 210.1875 23.125 C219.54885405 19.2302491 228.70765279 14.98182525 237.86962891 10.64013672 C241.07551761 9.12589972 244.28735684 7.62484582 247.5 6.125 C249.04143677 5.39156372 249.04143677 5.39156372 250.61401367 4.64331055 C255.80269092 2.23071379 260.26584181 0.37046528 266 0 C266.76683454 3.37537197 267.1056004 6.42469453 267.02172852 9.88208008 C267.00163223 10.82267776 266.98153595 11.76327545 266.96083069 12.7323761 C266.93379562 13.7346373 266.90676056 14.7368985 266.87890625 15.76953125 C266.85529526 16.80567062 266.83168427 17.84181 266.80735779 18.90934753 C266.73093894 22.21054531 266.64682083 25.51149554 266.5625 28.8125 C266.50925752 31.05402445 266.45651728 33.29556088 266.40429688 35.53710938 C266.27535333 41.02489191 266.14009215 46.51249136 266 52 C257.30559896 55.95257412 257.30559896 55.95257412 253.13452148 57.84594727 C248.11681909 60.12396248 243.10304882 62.40989448 238.09765625 64.71484375 C229.47432937 68.67731149 220.89862773 72.52128422 212 75.82421875 C208.1710799 77.32487624 204.48732906 79.08102048 200.77734375 80.85229492 C193.61434964 84.23887452 186.3359844 87.36041752 179.0625 90.5 C178.40245972 90.78504395 177.74241943 91.07008789 177.06237793 91.36376953 C174.46231793 92.48644656 171.86206058 93.60866383 169.26141357 94.72998047 C164.44017012 96.80875286 159.6232932 98.89716521 154.8125 101 C153.62398437 101.51820313 152.43546875 102.03640625 151.2109375 102.5703125 C147.27907299 104.3209967 143.39307606 106.16254624 139.52734375 108.0546875 C134.26968622 110.02123019 130.564474 110.48858447 125.36328125 108.3046875 C123.67170079 107.51160823 121.98830634 106.70088879 120.3125 105.875 C118.52401818 105.03001984 116.73495807 104.18626258 114.9453125 103.34375 C114.08969727 102.93511719 113.23408203 102.52648437 112.35253906 102.10546875 C109.50095061 100.76549443 106.60928051 99.55326571 103.6875 98.375 C99.22315755 96.5489643 94.85990605 94.55899655 90.5 92.5 C85.10853057 89.9544436 79.6796884 87.57082809 74.16015625 85.3125 C69.71657498 83.46695821 65.31848319 81.52156638 60.91552734 79.58154297 C57.02725684 77.87285022 53.12360421 76.22146185 49.1875 74.625 C42.96497581 72.06278416 36.92522811 69.13956977 30.859375 66.23144531 C26.84360166 64.31511828 22.84726107 62.46327241 18.6875 60.875 C14.51651708 59.27304727 10.51083937 57.40002436 6.5 55.4375 C5.3140625 54.85871094 4.128125 54.27992188 2.90625 53.68359375 C0 52 0 52 -2 49 C-2.25396729 46.86839294 -2.25396729 46.86839294 -2.25878906 44.37670898 C-2.26509338 43.44241562 -2.27139771 42.50812225 -2.27789307 41.54551697 C-2.2738446 40.53920731 -2.26979614 39.53289764 -2.265625 38.49609375 C-2.26753845 37.46186783 -2.2694519 36.42764191 -2.27142334 35.36207581 C-2.27278455 33.17570757 -2.26909256 30.98933123 -2.26074219 28.80297852 C-2.2500311 25.44724484 -2.26064538 22.09204522 -2.2734375 18.73632812 C-2.27211611 16.61458215 -2.26955413 14.4928365 -2.265625 12.37109375 C-2.26967346 11.36275986 -2.27372192 10.35442596 -2.27789307 9.3155365 C-2.27158875 8.38439529 -2.26528442 7.45325409 -2.25878906 6.49389648 C-2.25719788 5.67243637 -2.25560669 4.85097626 -2.25396729 4.00462341 C-2 2 -2 2 0 0 Z " fill="#292929" transform="translate(80,312)"/>
<path d="M0 0 C3.33340422 0.3104173 4.70250547 1.30081938 7.3515625 3.31640625 C11.9321964 6.71916286 16.65607695 9.68794069 21.57421875 12.578125 C24.03481567 14.49390736 24.15835378 15.30734362 24.7265625 18.25390625 C21.68544501 19.85911559 18.64357017 21.46288461 15.6015625 23.06640625 C14.745625 23.51822266 13.8896875 23.97003906 13.0078125 24.43554688 C11.337798 25.31551605 9.66644484 26.19295019 7.99365234 27.06762695 C6.07776266 28.07013696 4.16717502 29.08276987 2.2578125 30.09765625 C-0.2734375 31.25390625 -0.2734375 31.25390625 -2.6484375 30.94140625 C-3.1846875 30.71453125 -3.7209375 30.48765625 -4.2734375 30.25390625 C-4.2734375 28.60390625 -4.2734375 26.95390625 -4.2734375 25.25390625 C-7.9034375 25.25390625 -11.5334375 25.25390625 -15.2734375 25.25390625 C-14.7784375 27.01734375 -14.7784375 27.01734375 -14.2734375 28.81640625 C-13.30648851 32.70492255 -12.95164564 36.23150806 -13.2734375 40.25390625 C-14.2634375 41.24390625 -14.2634375 41.24390625 -15.2734375 42.25390625 C-17.7734375 42.06640625 -17.7734375 42.06640625 -20.2734375 41.25390625 C-22.62463149 37.72711526 -22.48787202 36.2251114 -22.3984375 32.06640625 C-22.38039063 30.97972656 -22.36234375 29.89304687 -22.34375 28.7734375 C-22.32054687 27.94199219 -22.29734375 27.11054687 -22.2734375 26.25390625 C-36.4666089 31.03523039 -36.4666089 31.03523039 -49.55859375 38.1875 C-51.2734375 39.25390625 -51.2734375 39.25390625 -53.2734375 39.25390625 C-52.70753906 39.929375 -52.14164063 40.60484375 -51.55859375 41.30078125 C-50.45837891 42.63882813 -50.45837891 42.63882813 -49.3359375 44.00390625 C-48.60503906 44.885625 -47.87414062 45.76734375 -47.12109375 46.67578125 C-45.43698687 49.02569783 -44.56374633 50.41258574 -44.2734375 53.25390625 C-44.7684375 54.24390625 -44.7684375 54.24390625 -45.2734375 55.25390625 C-48.30339301 55.68675704 -50.42309073 55.8696746 -52.97265625 54.0234375 C-55.58033675 51.46626897 -57.10046308 49.77282951 -58.2734375 46.25390625 C-67.49262647 50.02539265 -74.30352111 61.5200902 -78.2734375 70.25390625 C-78.2734375 70.91390625 -78.2734375 71.57390625 -78.2734375 72.25390625 C-77.59796875 72.351875 -76.9225 72.44984375 -76.2265625 72.55078125 C-68.97138323 73.76696737 -68.97138323 73.76696737 -65.5859375 76.12890625 C-64.2734375 78.25390625 -64.2734375 78.25390625 -64.4609375 80.44140625 C-65.2734375 82.25390625 -65.2734375 82.25390625 -66.2734375 83.25390625 C-72.41598711 83.88069703 -76.10627188 82.17971595 -81.2734375 79.25390625 C-83.93935624 86.68223295 -84.78589707 93.51709033 -84.9609375 101.37890625 C-85.01217773 102.95671875 -85.01217773 102.95671875 -85.06445312 104.56640625 C-85.14598382 107.12879938 -85.21543478 109.69089122 -85.2734375 112.25390625 C-84.74089355 112.04096924 -84.20834961 111.82803223 -83.65966797 111.60864258 C-82.5983667 111.19521606 -82.5983667 111.19521606 -81.515625 110.7734375 C-80.81808105 110.49862549 -80.12053711 110.22381348 -79.40185547 109.94067383 C-76.27503978 108.9317575 -73.51965242 108.92928476 -70.2734375 109.25390625 C-69.2834375 110.24390625 -69.2834375 110.24390625 -68.2734375 111.25390625 C-68.6484375 113.87890625 -68.6484375 113.87890625 -69.2734375 116.25390625 C-70.64173446 116.79210305 -72.01856215 117.30863034 -73.3984375 117.81640625 C-74.16414063 118.10644531 -74.92984375 118.39648438 -75.71875 118.6953125 C-78.83058817 119.37572971 -81.18586498 118.92959241 -84.2734375 118.25390625 C-82.20287556 125.44638458 -79.52314137 132.18170281 -76.2109375 138.87890625 C-75.70046875 139.92691406 -75.70046875 139.92691406 -75.1796875 140.99609375 C-73.48551579 144.34488452 -72.45312882 146.13411204 -69.2734375 148.25390625 C-68.8403125 147.59390625 -68.4071875 146.93390625 -67.9609375 146.25390625 C-67.125625 145.26390625 -67.125625 145.26390625 -66.2734375 144.25390625 C-65.2834375 144.25390625 -64.2934375 144.25390625 -63.2734375 144.25390625 C-62.9434375 143.26390625 -62.6134375 142.27390625 -62.2734375 141.25390625 C-59.3984375 140.62890625 -59.3984375 140.62890625 -56.2734375 140.25390625 C-54.2734375 142.25390625 -54.2734375 142.25390625 -53.8359375 144.640625 C-54.2734375 147.25390625 -54.2734375 147.25390625 -56.4609375 149.2734375 C-57.3890625 149.86511719 -58.3171875 150.45679688 -59.2734375 151.06640625 C-60.2015625 151.67097656 -61.1296875 152.27554688 -62.0859375 152.8984375 C-62.8078125 153.34574219 -63.5296875 153.79304687 -64.2734375 154.25390625 C-64.07872639 156.20389754 -64.07872639 156.20389754 -63.2734375 158.25390625 C-61.50245934 159.3046885 -61.50245934 159.3046885 -59.2734375 160.25390625 C-57.35962959 161.68856978 -55.46557978 163.14976291 -53.5859375 164.62890625 C-48.77289854 168.34557591 -44.00298824 171.18490182 -38.2734375 173.25390625 C-37.85771484 171.97193359 -37.85771484 171.97193359 -37.43359375 170.6640625 C-37.07136719 169.55933594 -36.70914063 168.45460937 -36.3359375 167.31640625 C-35.97628906 166.21425781 -35.61664063 165.11210937 -35.24609375 163.9765625 C-34.2734375 161.25390625 -34.2734375 161.25390625 -33.2734375 160.25390625 C-31.27385386 160.21309842 -29.27298496 160.21136269 -27.2734375 160.25390625 C-25.34411191 166.36343729 -27.73251204 170.73584496 -30.2734375 176.25390625 C-20.14136882 180.25340705 -8.97517333 179.37340454 1.7265625 179.25390625 C1.57058594 178.59003906 1.41460937 177.92617188 1.25390625 177.2421875 C1.05925781 176.35917969 0.86460937 175.47617187 0.6640625 174.56640625 C0.46683594 173.69628906 0.26960938 172.82617188 0.06640625 171.9296875 C-0.29633361 169.07363229 -0.04245911 167.0156128 0.7265625 164.25390625 C1.7265625 163.25390625 1.7265625 163.25390625 4.2890625 163.19140625 C5.0934375 163.21203125 5.8978125 163.23265625 6.7265625 163.25390625 C8.4745128 168.49775714 8.92048451 172.72712892 8.7265625 178.25390625 C19.65417144 175.33140619 30.79876687 171.43543379 39.7265625 164.25390625 C39.0665625 163.80015625 38.4065625 163.34640625 37.7265625 162.87890625 C37.0665625 162.34265625 36.4065625 161.80640625 35.7265625 161.25390625 C35.7265625 160.59390625 35.7265625 159.93390625 35.7265625 159.25390625 C34.7365625 158.92390625 33.7465625 158.59390625 32.7265625 158.25390625 C31.4765625 155.87890625 31.4765625 155.87890625 30.7265625 153.25390625 C31.0565625 152.26390625 31.3865625 151.27390625 31.7265625 150.25390625 C34.08083988 149.19854053 35.23469319 149.06808895 37.66015625 149.984375 C40.09564379 151.48065751 41.32764716 153.05543463 42.9765625 155.37890625 C43.49734375 156.10335937 44.018125 156.8278125 44.5546875 157.57421875 C45.13476562 158.40566406 45.13476562 158.40566406 45.7265625 159.25390625 C49.72169553 156.30222478 52.79833923 152.99899447 55.7890625 149.06640625 C56.44430908 148.21236206 56.44430908 148.21236206 57.11279297 147.34106445 C60.44254466 142.886566 62.77655557 138.48347029 64.7265625 133.25390625 C64.03949219 133.06054688 63.35242188 132.8671875 62.64453125 132.66796875 C61.74347656 132.40757812 60.84242188 132.1471875 59.9140625 131.87890625 C59.02074219 131.62367188 58.12742187 131.3684375 57.20703125 131.10546875 C54.7265625 130.25390625 54.7265625 130.25390625 51.7265625 128.25390625 C51.5390625 125.12890625 51.5390625 125.12890625 51.7265625 122.25390625 C57.83609354 120.32458066 62.20850121 122.71298079 67.7265625 125.25390625 C69.2817313 121.71300539 70.08037502 118.51522048 70.6015625 114.69140625 C71.17720184 111.47994469 71.63894755 109.40460396 73.2890625 106.56640625 C76.94113759 104.59990428 80.67192278 104.42505725 84.7265625 105.25390625 C86.47265625 106.390625 86.47265625 106.390625 87.7265625 108.25390625 C89.45265376 118.66799021 86.51446195 127.75150333 82.7265625 137.25390625 C82.38109375 138.12144531 82.035625 138.98898438 81.6796875 139.8828125 C80.76139025 142.04683265 79.77612182 144.15073525 78.7265625 146.25390625 C78.38238281 146.95386719 78.03820312 147.65382812 77.68359375 148.375 C72.45593692 158.38426785 65.66440548 167.33223744 56.7265625 174.25390625 C55.86675781 174.9603125 55.00695312 175.66671875 54.12109375 176.39453125 C46.21853968 182.66538387 37.89132029 187.12024695 28.7265625 191.25390625 C27.81519531 191.67671875 26.90382812 192.09953125 25.96484375 192.53515625 C4.94459729 201.24684395 -21.68017994 200.06460302 -42.60253906 191.79394531 C-53.50668911 187.19834776 -63.42916513 181.14639434 -72.2734375 173.25390625 C-73.50320312 172.16529297 -73.50320312 172.16529297 -74.7578125 171.0546875 C-85.64601859 160.82586035 -93.29637271 148.29856095 -98.2734375 134.25390625 C-98.6859375 133.16207031 -99.0984375 132.07023438 -99.5234375 130.9453125 C-102.50416197 121.49600195 -102.69556235 112.01981595 -102.7734375 102.19140625 C-102.78397156 101.51716614 -102.79450562 100.84292603 -102.80535889 100.14825439 C-102.9734368 86.21218179 -100.17865295 73.94483492 -93.9609375 61.44140625 C-93.57067383 60.63880371 -93.18041016 59.83620117 -92.77832031 59.00927734 C-88.69766006 50.79632399 -84.06044381 43.50509627 -77.2734375 37.25390625 C-76.3865625 36.32578125 -75.4996875 35.39765625 -74.5859375 34.44140625 C-72.2734375 32.25390625 -72.2734375 32.25390625 -70.2734375 32.25390625 C-69.7784375 30.76890625 -69.7784375 30.76890625 -69.2734375 29.25390625 C-66.99143876 27.51664269 -64.73818892 25.93185639 -62.3359375 24.37890625 C-61.65080078 23.93200439 -60.96566406 23.48510254 -60.25976562 23.0246582 C-42.65126729 11.68390733 -24.27145575 6.56166389 -3.2734375 7.25390625 C-3.2940625 6.28453125 -3.3146875 5.31515625 -3.3359375 4.31640625 C-3.25526718 0.36356077 -3.25526718 0.36356077 0 0 Z " fill="#292929" transform="translate(220.2734375,82.74609375)"/>
<path d="M0 0 C2.8125 0.3125 2.8125 0.3125 3.8125 1.3125 C4.43042388 5.47730694 3.97509432 7.06860852 1.609375 10.6171875 C0.60720652 11.81864511 -0.40939675 13.00815876 -1.4375 14.1875 C-2.54658052 15.51369685 -3.65327972 16.84188815 -4.7578125 18.171875 C-5.32790039 18.85314453 -5.89798828 19.53441406 -6.48535156 20.23632812 C-9.20552613 23.5542232 -11.75911747 26.99060036 -14.3125 30.4375 C-15.30426776 31.76984379 -16.29645113 33.10187833 -17.2890625 34.43359375 C-18.01077637 35.40208252 -18.01077637 35.40208252 -18.74707031 36.39013672 C-28.75844451 49.75107916 -28.75844451 49.75107916 -32.46484375 53.80078125 C-34.61040303 56.92911372 -34.52177903 58.57434636 -34.25 62.3125 C-33.91846361 67.03840059 -34.35573837 69.45834462 -37.1875 73.3125 C-40.08950363 75.65022514 -41.91050894 76.27724659 -45.625 76.75 C-49.84753788 76.23144272 -51.9115245 74.97899168 -55.1875 72.3125 C-57.50030315 68.84329528 -57.25095206 68.10335833 -56.875 64.125 C-56.82531885 59.89658237 -57.09004338 57.66993966 -59.9375 54.5 C-61.35382799 53.10382302 -62.7705537 51.70804946 -64.1875 50.3125 C-66.22633254 48.01204105 -68.20564986 45.6620907 -70.1875 43.3125 C-73.49157623 39.40356797 -76.84241348 35.64623612 -80.4375 32 C-83.03006768 29.10611695 -83.59488643 27.19715052 -83.625 23.3125 C-83.51435983 21.97578616 -83.38105665 20.63974563 -83.1875 19.3125 C-80.29108408 18.69624129 -78.97776071 18.49546233 -76.1875 19.3125 C-72.73453826 22.26412428 -70.00980089 25.76677629 -67.1875 29.3125 C-66.45402344 30.20066406 -65.72054687 31.08882812 -64.96484375 32.00390625 C-61.78495306 35.85678968 -58.63670617 39.72895123 -55.57421875 43.67578125 C-54.69548011 44.78398709 -53.81657749 45.89206293 -52.9375 47 C-52.14859375 48.01449219 -51.3596875 49.02898437 -50.546875 50.07421875 C-48.38519359 52.57167691 -48.38519359 52.57167691 -45.390625 52.64453125 C-44.66359375 52.53496094 -43.9365625 52.42539063 -43.1875 52.3125 C-42.98125 51.6525 -42.775 50.9925 -42.5625 50.3125 C-40.69625748 46.24069814 -38.21188473 42.62453002 -35.1875 39.3125 C-34.5275 39.3125 -33.8675 39.3125 -33.1875 39.3125 C-32.90696777 38.72186768 -32.62643555 38.13123535 -32.33740234 37.52270508 C-31.28242329 35.49495022 -30.15844086 33.77302274 -28.7890625 31.94921875 C-28.31533203 31.31661133 -27.84160156 30.68400391 -27.35351562 30.03222656 C-26.84498047 29.3615918 -26.33644531 28.69095703 -25.8125 28 C-25.02262695 26.95344238 -25.02262695 26.95344238 -24.21679688 25.88574219 C-20.43337414 20.89727912 -16.58747915 15.96030398 -12.6875 11.0625 C-12.19588379 10.44334717 -11.70426758 9.82419434 -11.19775391 9.1862793 C-4.14939062 0.406803 -4.14939062 0.406803 0 0 Z " fill="#292929" transform="translate(259.1875,120.6875)"/>
<path d="M0 0 C0.91968264 0.00075944 1.83936528 0.00151888 2.78691709 0.00230134 C3.84636805 -0.00168076 4.905819 -0.00566286 5.99737453 -0.00976562 C7.17050619 -0.00393994 8.34363784 0.00188574 9.55231893 0.00788796 C10.79134415 0.00617911 12.03036936 0.00447026 13.30694079 0.00270963 C16.7571829 -0.00002405 20.20720025 0.0062605 23.65741527 0.01626575 C27.37384298 0.0248761 31.09026333 0.02198181 34.8066982 0.0204612 C41.24934328 0.01941081 47.69194796 0.02570343 54.13458288 0.03693688 C63.44962744 0.05316815 72.7646524 0.05839745 82.07970957 0.06091286 C97.19155195 0.0652937 112.30337278 0.07861333 127.41520345 0.09751809 C142.09781954 0.11586684 156.78042978 0.13002825 171.46305501 0.13853371 C172.36758923 0.13905916 173.27212344 0.13958461 174.20406778 0.14012598 C178.74170007 0.14273599 183.27933239 0.14526342 187.81696475 0.14774978 C225.4809111 0.16849439 263.14483294 0.20373048 300.80875814 0.24839699 C300.80875814 0.90839699 300.80875814 1.56839699 300.80875814 2.24839699 C201.14875814 2.57839699 101.48875814 2.90839699 -1.19124186 3.24839699 C-1.52124186 125.34839699 -1.85124186 247.44839699 -2.19124186 373.24839699 C-2.52124186 373.24839699 -2.85124186 373.24839699 -3.19124186 373.24839699 C-3.36440153 326.01926989 -3.52706189 278.79011683 -3.67555479 231.56090537 C-3.6930774 225.99058984 -3.71068734 220.42027458 -3.72835124 214.84995949 C-3.73186647 213.74096603 -3.73538171 212.63197257 -3.73900346 211.48937325 C-3.79620043 193.51052571 -3.86047823 175.53171006 -3.92735286 157.55289622 C-3.99576752 139.11788502 -4.05661923 120.68286015 -4.11038589 102.24780035 C-4.14382822 90.8637741 -4.18323606 79.47980011 -4.23017024 68.09582137 C-4.26174973 60.29936433 -4.28601211 52.5029064 -4.30441441 44.7064072 C-4.31526586 40.20192813 -4.32944479 35.69752142 -4.3522774 31.19308579 C-4.37307995 27.07516257 -4.38476435 22.95732128 -4.38897185 18.8393486 C-4.39214958 17.34402193 -4.39877109 15.8486981 -4.4090534 14.3534034 C-4.42246802 12.33182142 -4.42249788 10.31016349 -4.42172015 8.28853714 C-4.42551735 7.16228665 -4.42931455 6.03603615 -4.43322682 4.87565684 C-4.12568574 1.53664633 -3.4130717 0.3869024 0 0 Z " fill="#3C3C3C" transform="translate(63.19124186038971,66.75160300731659)"/>
<path d="M0 0 C1.45583599 -0.00274211 2.91167 -0.0067955 4.36749911 -0.01204365 C8.35932384 -0.02261672 12.35092419 -0.01451057 16.34273911 -0.00329316 C20.65083531 0.00555545 24.95890237 -0.00289645 29.26699829 -0.00915527 C37.70199011 -0.01864049 46.13689634 -0.01204639 54.5718818 0.00010767 C64.39056258 0.01372877 74.20922297 0.01208979 84.0279108 0.00997434 C101.54163504 0.00678503 119.05531859 0.01845015 136.56903076 0.03804016 C153.57360065 0.05705573 170.57812288 0.0641246 187.58270264 0.05854797 C206.09445971 0.05249504 224.60619583 0.05265744 243.11795115 0.06403381 C245.09029945 0.06524112 247.06264774 0.06644711 249.03499603 0.06765175 C250.0054758 0.06825529 250.97595556 0.06885883 251.9758438 0.06948065 C258.82487372 0.07336488 265.67389584 0.07296428 272.52292633 0.0710659 C280.86296185 0.06894749 289.20295555 0.07414146 297.54297927 0.08867946 C301.8005284 0.09594011 306.05801652 0.09998624 310.31557083 0.0954361 C314.20878677 0.09137639 318.10187644 0.09647717 321.99507317 0.10906217 C323.40742184 0.11200351 324.81978232 0.11153773 326.23212805 0.1074191 C328.14415631 0.10234723 330.05620634 0.11066401 331.96821976 0.11974621 C333.03257854 0.12061299 334.09693732 0.12147976 335.19354939 0.12237281 C337.81512451 0.3742218 337.81512451 0.3742218 340.81512451 2.3742218 C340.06796985 2.37308264 339.3208152 2.37194348 338.55101949 2.3707698 C294.29333386 2.3036723 250.03565375 2.25218071 205.77792748 2.22102581 C200.46684007 2.21727358 195.15575278 2.21339062 189.84466553 2.20942688 C188.25861641 2.20824648 188.25861641 2.20824648 186.6405259 2.20704224 C169.50759262 2.19397935 152.37468946 2.17032065 135.24177406 2.14276341 C117.66892896 2.11473379 100.09609966 2.09805072 82.52323312 2.09195632 C71.67509189 2.0878348 60.8270358 2.07480556 49.97892078 2.0504724 C42.54544611 2.03464535 35.11201561 2.02981455 27.67852531 2.03371767 C23.38630766 2.03564395 19.09423904 2.03263892 14.80204773 2.01660538 C10.87449243 2.00204071 6.94718683 2.00124695 3.0196202 2.01152512 C1.59692461 2.01279602 0.17421363 2.00896132 -1.24845155 1.99957225 C-3.17929364 1.98756784 -5.11023004 1.9958003 -7.04108715 2.00507832 C-8.11455652 2.00393915 -9.1880259 2.00279999 -10.29402465 2.00162631 C-14.89964853 2.59523518 -18.05270788 5.09770549 -21.49737549 8.0617218 C-22.38425049 8.8248468 -23.27112549 9.5879718 -24.18487549 10.3742218 C-23.57209937 7.41247057 -22.93115027 5.99363397 -21.18487549 3.3742218 C-14.56896912 -0.64616288 -7.52685001 -0.04265479 0 0 Z " fill="#010101" transform="translate(50.18487548828125,31.625778198242188)"/>
<path d="M0 0 C1 1 1 1 1.40234375 3.6171875 C0.84155144 8.33219857 -1.38970881 10.61802778 -4.4375 14.125 C-5.54211161 15.44385123 -6.64495623 16.76418429 -7.74609375 18.0859375 C-8.2963623 18.74045898 -8.84663086 19.39498047 -9.41357422 20.06933594 C-12.46880804 23.78752447 -15.24790232 27.70731913 -18.0625 31.609375 C-19.89983354 33.87640751 -21.53278249 35.45798906 -24 37 C-24.66 37 -25.32 37 -26 37 C-26.33 35.68 -26.66 34.36 -27 33 C-24 31 -24 31 -22.06640625 30.1796875 C-19.31889217 28.61116339 -17.86211349 26.62440173 -15.9375 24.125 C-15.26589844 23.26132813 -14.59429687 22.39765625 -13.90234375 21.5078125 C-13.27457031 20.68023437 -12.64679688 19.85265625 -12 19 C-11.14535156 17.93072266 -11.14535156 17.93072266 -10.2734375 16.83984375 C-8.58543841 14.40104752 -8.62720602 12.90779305 -9 10 C-9.66 9.01 -10.32 8.02 -11 7 C-8.05920073 0.71738338 -6.97306187 -0.29672604 0 0 Z " fill="#2A2A2A" transform="translate(262,121)"/>
<path d="M0 0 C1.4540625 0.0309375 1.4540625 0.0309375 2.9375 0.0625 C4.86682559 6.17203104 2.47842546 10.54443871 -0.0625 16.0625 C1.9175 16.7225 3.8975 17.3825 5.9375 18.0625 C2.80082092 19.09076931 1.10565258 19.05636675 -1.953125 17.84765625 C-2.66210938 17.57373047 -3.37109375 17.29980469 -4.1015625 17.01757812 C-4.83117187 16.72302734 -5.56078125 16.42847656 -6.3125 16.125 C-7.05757812 15.83431641 -7.80265625 15.54363281 -8.5703125 15.24414062 C-10.40491814 14.52676278 -12.23425065 13.79592561 -14.0625 13.0625 C-11.0625 12.0625 -11.0625 12.0625 -8.0625 13.0625 C-7.78535156 12.20785156 -7.50820312 11.35320312 -7.22265625 10.47265625 C-6.86042969 9.36792969 -6.49820313 8.26320312 -6.125 7.125 C-5.76535156 6.02285156 -5.40570313 4.92070312 -5.03515625 3.78515625 C-3.70997522 0.07571378 -3.70997522 0.07571378 0 0 Z " fill="#262626" transform="translate(190.0625,242.9375)"/>
<path d="M0 0 C2.86054142 2.69708191 5.47543296 5.44373499 7.875 8.5625 C8.30554688 9.12066406 8.73609375 9.67882812 9.1796875 10.25390625 C10.24857916 12.52911849 9.82144584 13.68271143 9 16 C5.97004449 16.43285079 3.85034677 16.61576835 1.30078125 14.76953125 C-1.30689925 12.21236272 -2.82702558 10.51892326 -4 7 C-7.94139078 8.66751148 -10.7892812 11.22710649 -14 14 C-12.4561393 10.16666407 -10.07543723 8.01691792 -7 5.3125 C-6.113125 4.52488281 -5.22625 3.73726563 -4.3125 2.92578125 C-2 1 -2 1 0 0 Z " fill="#1F1F1F" transform="translate(166,122)"/>
<path d="M0 0 C0.93045933 2.55144824 1.08564091 3.74006478 0.22265625 6.359375 C-0.35162109 7.54273438 -0.35162109 7.54273438 -0.9375 8.75 C-1.31777344 9.54921875 -1.69804687 10.3484375 -2.08984375 11.171875 C-2.39019531 11.77515625 -2.69054687 12.3784375 -3 13 C-14.71440607 11.06655434 -14.71440607 11.06655434 -18 8 C-18.3125 4.8125 -18.3125 4.8125 -18 2 C-11.89046896 0.07067441 -7.51806129 2.45907454 -2 5 C-1.34 3.35 -0.68 1.7 0 0 Z " fill="#2D2D2D" transform="translate(290,203)"/>
<path d="M0 0 C1.11375 0.185625 1.11375 0.185625 2.25 0.375 C3.5950611 5.75524439 3.22015359 8.89201648 0.5 13.765625 C-0.75 15.375 -0.75 15.375 -3.375 16.5 C-5.75 16.375 -5.75 16.375 -7.75 14.375 C-7.55906687 8.64700604 -6.86658784 0.93635289 0 0 Z " fill="#2D2D2D" transform="translate(240.75,111.625)"/>
<path d="M0 0 C1.9375 1.25 1.9375 1.25 3 3 C2.56640625 5.109375 2.56640625 5.109375 2 7 C0.08833753 7.5590711 -1.82961576 8.09666462 -3.75 8.625 C-4.81734375 8.92664063 -5.8846875 9.22828125 -6.984375 9.5390625 C-10.21888938 10.03345719 -11.33874255 9.79570284 -14 8 C-13.67 6.02 -13.34 4.04 -13 2 C-8.54695356 0.57502514 -4.72944312 -0.53743672 0 0 Z " fill="#1E1E1E" transform="translate(289,169)"/>
<path d="M0 0 C1.11375 0.3403125 1.11375 0.3403125 2.25 0.6875 C2.58 2.3375 2.91 3.9875 3.25 5.6875 C-3.64715536 12.54964442 -3.64715536 12.54964442 -8.25 13.125 C-9.075 12.980625 -9.9 12.83625 -10.75 12.6875 C-11.5625 10.5 -11.5625 10.5 -11.75 7.6875 C-9.5625 5.0625 -9.5625 5.0625 -6.75 2.6875 C-6.09 2.06875 -5.43 1.45 -4.75 0.8125 C-2.75 -0.3125 -2.75 -0.3125 0 0 Z " fill="#272727" transform="translate(272.75,134.3125)"/>
<path d="M0 0 C2.44256464 3.66384697 2.36462006 6.53374041 2.44921875 10.78125 C2.48182549 11.93433655 2.48182549 11.93433655 2.51509094 13.11071777 C2.55901208 14.74133769 2.59821102 16.37209059 2.63305664 18.00292969 C2.68670131 20.46336771 2.75713078 22.9228798 2.83007812 25.3828125 C3.29245218 42.68285088 3.29245218 42.68285088 2 50 C1 51 1 51 -2.0625 51.0625 C-3.031875 51.041875 -4.00125 51.02125 -5 51 C-3.625 49.5 -3.625 49.5 -2 48 C-1.34 48 -0.68 48 0 48 C0 32.16 0 16.32 0 0 Z " fill="#3B3B3B" transform="translate(344,381)"/>
<path d="M0 0 C0 5.7814987 -1.75122596 8.12148899 -5.625 12.21875 C-7.13409058 14.17370826 -7.41653264 15.63719828 -8 18 C-9.37857922 19.14321203 -10.76368169 20.27964327 -12.18359375 21.37109375 C-15.26203578 24.13176112 -17.60373741 27.48934308 -20.0703125 30.79296875 C-21.96655154 32.96174417 -23.35292066 33.94705066 -26 35 C-24.73674614 32.34034633 -23.3685394 29.99006361 -21.6015625 27.63671875 C-21.12750977 27.00378906 -20.65345703 26.37085938 -20.16503906 25.71875 C-19.65682617 25.0484375 -19.14861328 24.378125 -18.625 23.6875 C-18.10131836 22.99269531 -17.57763672 22.29789063 -17.03808594 21.58203125 C-11.50113559 14.27418017 -5.77194718 7.12282844 0 0 Z " fill="#1E1E1E" transform="translate(252,125)"/>
<path d="M0 0 C3.55199587 1.56287818 4.95944658 3.20996039 7.125 6.375 C6.465 7.695 5.805 9.015 5.125 10.375 C3.1875 10.0625 3.1875 10.0625 1.125 9.375 C0.795 8.385 0.465 7.395 0.125 6.375 C-0.535 6.375 -1.195 6.375 -1.875 6.375 C-1.545 7.365 -1.215 8.355 -0.875 9.375 C-3.875 8.375 -3.875 8.375 -5.125 6 C-5.875 3.375 -5.875 3.375 -4.875 0.375 C-2.875 -0.625 -2.875 -0.625 0 0 Z " fill="#262626" transform="translate(256.875,232.625)"/>
<path d="M0 0 C0.33 0 0.66 0 1 0 C1.66 2.31 2.32 4.62 3 7 C3.99 7 4.98 7 6 7 C6.33 4.69 6.66 2.38 7 0 C7.33 0 7.66 0 8 0 C8 2.64 8 5.28 8 8 C11.465 7.505 11.465 7.505 15 7 C9.36856396 12.63143604 -3.59301699 11.2074282 -11.125 11.25 C-12.51199097 11.26377686 -12.51199097 11.26377686 -13.92700195 11.27783203 C-14.79929443 11.27380371 -15.67158691 11.26977539 -16.5703125 11.265625 C-17.35164551 11.26336914 -18.13297852 11.26111328 -18.93798828 11.25878906 C-21 11 -21 11 -24 9 C-15.75 9 -7.5 9 1 9 C0.67 8.34 0.34 7.68 0 7 C-0.04022391 4.6670134 -0.04320247 2.33293334 0 0 Z " fill="#080808" transform="translate(221,253)"/>
<path d="M0 0 C1.03253906 0.00676758 1.03253906 0.00676758 2.0859375 0.01367188 C3.76566335 0.02533664 5.44534375 0.04326729 7.125 0.0625 C7.125 1.3825 7.125 2.7025 7.125 4.0625 C8.115 3.7325 9.105 3.4025 10.125 3.0625 C11.115 3.7225 12.105 4.3825 13.125 5.0625 C8.5 9.0625 8.5 9.0625 5.125 9.0625 C5.125 6.7525 5.125 4.4425 5.125 2.0625 C-5.765 2.5575 -5.765 2.5575 -16.875 3.0625 C-11.66722948 -0.40934701 -6.09196647 -0.07673989 0 0 Z " fill="#414141" transform="translate(211.875,104.9375)"/>
<path d="M0 0 C0.33 0.99 0.66 1.98 1 3 C0.07543945 4.76171875 0.07543945 4.76171875 -1.38671875 6.6875 C-1.91330078 7.38617188 -2.43988281 8.08484375 -2.98242188 8.8046875 C-3.54509766 9.52914062 -4.10777344 10.25359375 -4.6875 11 C-5.23083984 11.72445312 -5.77417969 12.44890625 -6.33398438 13.1953125 C-8.97197717 16.65309266 -11.32571852 19.58850642 -15 22 C-15.66 22 -16.32 22 -17 22 C-17.33 20.68 -17.66 19.36 -18 18 C-15 16 -15 16 -13.06640625 15.1796875 C-10.31889217 13.61116339 -8.86211349 11.62440173 -6.9375 9.125 C-6.26589844 8.26132813 -5.59429687 7.39765625 -4.90234375 6.5078125 C-3.26088403 4.34391693 -1.62475404 2.1764618 0 0 Z " fill="#2F2F2F" transform="translate(253,136)"/>
<path d="M0 0 C3.36720387 1.39332574 4.9859524 2.9789286 7 6 C6 8 6 8 5 10 C6.65 11.98 8.3 13.96 10 16 C9.67 16.66 9.34 17.32 9 18 C8.51789063 17.43410156 8.03578125 16.86820313 7.5390625 16.28515625 C6.90742188 15.55167969 6.27578125 14.81820312 5.625 14.0625 C4.99851563 13.33160156 4.37203125 12.60070312 3.7265625 11.84765625 C2.12252286 9.91619094 2.12252286 9.91619094 0 9 C-0.44921875 7.1875 -0.44921875 7.1875 -0.6875 5 C-0.77386719 4.278125 -0.86023438 3.55625 -0.94921875 2.8125 C-0.96597656 2.214375 -0.98273438 1.61625 -1 1 C-0.67 0.67 -0.34 0.34 0 0 Z " fill="#2E2E2E" transform="translate(179,142)"/>
<path d="M0 0 C0.99 0 1.98 0 3 0 C2.979375 1.0725 2.95875 2.145 2.9375 3.25 C2.9857984 6.14790424 3.13155885 8.28612141 4 11 C5.32 11.33 6.64 11.66 8 12 C8 12.66 8 13.32 8 14 C10.31 14.33 12.62 14.66 15 15 C15 15.33 15 15.66 15 16 C9.29060212 16.45675183 6.44872541 15.62105556 2 12 C-0.13586678 8.79619983 -0.23132175 7.98060033 -0.125 4.3125 C-0.10695312 3.50425781 -0.08890625 2.69601563 -0.0703125 1.86328125 C-0.04710937 1.24839844 -0.02390625 0.63351563 0 0 Z " fill="#1C1C1C" transform="translate(202,181)"/>
<path d="M0 0 C2.78357038 0.4912183 5.23362564 1.09141873 7.875 2.125 C12.75703862 3.49197081 17.20189953 2.34346813 22 1 C21 4 21 4 18 6 C15.40625 6.265625 15.40625 6.265625 12.5 6.25 C11.06140625 6.25773438 11.06140625 6.25773438 9.59375 6.265625 C7 6 7 6 4 4 C4 3.34 4 2.68 4 2 C2.68 1.34 1.36 0.68 0 0 Z " fill="#323232" transform="translate(200,550)"/>
<path d="M0 0 C1.6045556 0.14148989 3.20863767 0.28835686 4.8125 0.4375 C5.70582031 0.51871094 6.59914062 0.59992188 7.51953125 0.68359375 C10 1 10 1 13 2 C14.9906444 2.14986411 16.98535391 2.24828038 18.98046875 2.31640625 C20.14384766 2.35830078 21.30722656 2.40019531 22.50585938 2.44335938 C23.72080078 2.48267578 24.93574219 2.52199219 26.1875 2.5625 C27.41404297 2.60568359 28.64058594 2.64886719 29.90429688 2.69335938 C32.93608381 2.7995309 35.96795315 2.90157952 39 3 C39 3.33 39 3.66 39 4 C28.44 4 17.88 4 7 4 C7 3.34 7 2.68 7 2 C4.69 1.67 2.38 1.34 0 1 C0 0.67 0 0.34 0 0 Z " fill="#4C4C4C" transform="translate(187,275)"/>
<path d="M0 0 C1.57043101 0.01330874 3.14079971 0.03717648 4.7109375 0.0703125 C5.51273438 0.07933594 6.31453125 0.08835937 7.140625 0.09765625 C9.12252273 0.12125027 11.10426731 0.15712185 13.0859375 0.1953125 C13.0859375 2.1753125 13.0859375 4.1553125 13.0859375 6.1953125 C12.7559375 6.1953125 12.4259375 6.1953125 12.0859375 6.1953125 C12.0859375 4.5453125 12.0859375 2.8953125 12.0859375 1.1953125 C8.4559375 1.1953125 4.8259375 1.1953125 1.0859375 1.1953125 C0.7559375 2.1853125 0.4259375 3.1753125 0.0859375 4.1953125 C-1.5640625 3.8653125 -3.2140625 3.5353125 -4.9140625 3.1953125 C-4.5840625 7.4853125 -4.2540625 11.7753125 -3.9140625 16.1953125 C-5.9140625 14.1953125 -5.9140625 14.1953125 -6.1796875 11.4453125 C-6.17453125 10.3728125 -6.169375 9.3003125 -6.1640625 8.1953125 C-6.16921875 7.1228125 -6.174375 6.0503125 -6.1796875 4.9453125 C-5.73933095 0.38632708 -4.47305968 0.22320657 0 0 Z " fill="#090909" transform="translate(203.9140625,106.8046875)"/>
<path d="M0 0 C4.08551933 0.51068992 7.14703512 2.00404992 10.734375 3.88671875 C14.06313032 5.52240024 17.51935804 6.78577808 20.99609375 8.0703125 C23 9 23 9 24 11 C19.70183134 10.44539759 16.23168251 8.78294636 12.3515625 6.97265625 C10.07925073 6.03277979 7.96691933 5.48525554 5.5625 5 C2 4 2 4 0.5 1.875 C0.335 1.25625 0.17 0.6375 0 0 Z " fill="#373737" transform="translate(139,321)"/>
<path d="M0 0 C0.33 0.66 0.66 1.32 1 2 C-0.98 2.66 -2.96 3.32 -5 4 C-5 4.66 -5 5.32 -5 6 C-10.54891215 8.81849506 -14.741346 10.5326514 -21 10 C-18.09166753 8.06111169 -15.41904063 6.86731074 -12.1875 5.5625 C-8.02585304 3.85748585 -3.97613365 2.09851498 0 0 Z " fill="#323232" transform="translate(242,406)"/>
<path d="M0 0 C0.99 0.33 1.98 0.66 3 1 C1.02 1.66 -0.96 2.32 -3 3 C-3 3.66 -3 4.32 -3 5 C-9.89715536 9.07877462 -9.89715536 9.07877462 -14.5 8.75 C-15.7375 8.37875 -15.7375 8.37875 -17 8 C-14.41879025 5.41879025 -11.9172628 4.70385292 -8.5 3.4375 C-4.18461645 1.86937955 -4.18461645 1.86937955 0 0 Z " fill="#363636" transform="translate(309,310)"/>
<path d="M0 0 C-0.639375 0.103125 -1.27875 0.20625 -1.9375 0.3125 C-2.618125 0.539375 -3.29875 0.76625 -4 1 C-4.33 1.99 -4.66 2.98 -5 4 C-10.01039858 6.65857884 -14.37647098 7.50670798 -20 8 C-17.31922593 4.72787871 -13.80013147 3.35415386 -10 1.75 C-9.3709375 1.46898437 -8.741875 1.18796875 -8.09375 0.8984375 C-3.369782 -1.12326067 -3.369782 -1.12326067 0 0 Z " fill="#303030" transform="translate(293,386)"/>
<path d="M0 0 C-2.72220784 3.24262993 -6.27994438 4.89759525 -10 6.75 C-10.6290625 7.07871094 -11.258125 7.40742187 -11.90625 7.74609375 C-13.56553427 8.57925132 -15.28126363 9.29763177 -17 10 C-17.99 9.67 -18.98 9.34 -20 9 C-19.401875 8.731875 -18.80375 8.46375 -18.1875 8.1875 C-15.99549394 7.13850075 -15.99549394 7.13850075 -14.60546875 5.5625 C-10.72460372 1.7855024 -5.44580068 -0.68072508 0 0 Z " fill="#1F1F1F" transform="translate(290,518)"/>
<path d="M0 0 C-1.32 0.33 -2.64 0.66 -4 1 C-4 1.66 -4 2.32 -4 3 C-6.09836004 4.03271642 -8.20390891 5.05083717 -10.3125 6.0625 C-11.48425781 6.63097656 -12.65601563 7.19945312 -13.86328125 7.78515625 C-17 9 -17 9 -20 8 C-18.02 7.34 -16.04 6.68 -14 6 C-14 5.34 -14 4.68 -14 4 C-12.730447 3.35165346 -11.45930294 2.70642185 -10.1875 2.0625 C-9.47980469 1.70285156 -8.77210938 1.34320313 -8.04296875 0.97265625 C-3.52913386 -1.17637795 -3.52913386 -1.17637795 0 0 Z " fill="#2F2F2F" transform="translate(326,305)"/>
<path d="M0 0 C14.13200462 2.57943385 14.13200462 2.57943385 18 7 C18.66 7.66 19.32 8.32 20 9 C16.14683037 8.3776187 12.96673701 7.21667646 9.4375 5.5625 C8.04337891 4.91474609 8.04337891 4.91474609 6.62109375 4.25390625 C4.40158196 3.19211298 2.19539834 2.11061328 0 1 C0 0.67 0 0.34 0 0 Z " fill="#1A1A1A" transform="translate(113,445)"/>
<path d="M0 0 C2 1 4 2 6 3 C6 4.98 6 6.96 6 9 C3.625 8.8125 3.625 8.8125 1 8 C-0.375 5.625 -0.375 5.625 -1 3 C-0.67 2.01 -0.34 1.02 0 0 Z " fill="#333333" transform="translate(168,128)"/>
<path d="M0 0 C1.66870487 0.32297514 3.33465333 0.66013333 5 1 C5.71285156 1.1340625 6.42570312 1.268125 7.16015625 1.40625 C11.63210483 2.30213285 15.26112822 3.22599836 19 6 C19 6.33 19 6.66 19 7 C13.90229172 7.3718693 10.68534545 6.23363859 6.125 4 C4.97257812 3.443125 3.82015625 2.88625 2.6328125 2.3125 C1.76398438 1.879375 0.89515625 1.44625 0 1 C0 0.67 0 0.34 0 0 Z " fill="#202020" transform="translate(110,377)"/>
<path d="M0 0 C0.66 0.66 1.32 1.32 2 2 C1.625 4.125 1.625 4.125 1 6 C0.67 5.01 0.34 4.02 0 3 C-0.99 4.485 -0.99 4.485 -2 6 C-3.32 6 -4.64 6 -6 6 C-5.67 5.01 -5.34 4.02 -5 3 C-7.97 2.505 -7.97 2.505 -11 2 C-7.36534398 -0.32617985 -4.23963281 -0.31404687 0 0 Z " fill="#181818" transform="translate(150,192)"/>
<path d="M0 0 C0 0.66 0 1.32 0 2 C-0.99 2 -1.98 2 -3 2 C-3 2.66 -3 3.32 -3 4 C-4.61992165 4.86375896 -6.24611861 5.71575854 -7.875 6.5625 C-9.23238281 7.27599609 -9.23238281 7.27599609 -10.6171875 8.00390625 C-11.40351563 8.33261719 -12.18984375 8.66132813 -13 9 C-13.66 8.67 -14.32 8.34 -15 8 C-12.69650354 4.54475531 -11.23793453 3.95030553 -7.5 2.3125 C-6.5203125 1.87550781 -5.540625 1.43851562 -4.53125 0.98828125 C-2 0 -2 0 0 0 Z " fill="#1E1E1E" transform="translate(244,500)"/>
<path d="M0 0 C1.65 0 3.3 0 5 0 C4.51522843 7.2715736 4.51522843 7.2715736 2.1875 10.5625 C0 12 0 12 -2.25 11.75 C-3.11625 11.37875 -3.11625 11.37875 -4 11 C-3.01 10.67 -2.02 10.34 -1 10 C0.02281518 7.90280128 0.02281518 7.90280128 0.6875 5.4375 C0.93886719 4.61121094 1.19023437 3.78492187 1.44921875 2.93359375 C1.63097656 2.29550781 1.81273437 1.65742187 2 1 C1.34 0.67 0.68 0.34 0 0 Z " fill="#2D2D2D" transform="translate(239,114)"/>
<path d="M0 0 C-2.56191387 3.84287081 -4.68377925 4.48932274 -9 6 C-12.4375 6.1875 -12.4375 6.1875 -15 6 C-15 5.34 -15 4.68 -15 4 C-12.87875034 3.13656176 -10.75286928 2.28449352 -8.625 1.4375 C-6.84996094 0.72400391 -6.84996094 0.72400391 -5.0390625 -0.00390625 C-2 -1 -2 -1 0 0 Z " fill="#363636" transform="translate(343,297)"/>
<path d="M0 0 C0.33 0 0.66 0 1 0 C1 1.65 1 3.3 1 5 C2.98 5 4.96 5 7 5 C7 5.66 7 6.32 7 7 C8.98 7.66 10.96 8.32 13 9 C9.86332092 10.02826931 8.16815258 9.99386675 5.109375 8.78515625 C4.40039062 8.51123047 3.69140625 8.23730469 2.9609375 7.95507812 C2.23132813 7.66052734 1.50171875 7.36597656 0.75 7.0625 C0.00492188 6.77181641 -0.74015625 6.48113281 -1.5078125 6.18164062 C-3.34241814 5.46426278 -5.17175065 4.73342561 -7 4 C-4 3 -4 3 -1 4 C-0.67 2.68 -0.34 1.36 0 0 Z " fill="#080808" transform="translate(183,252)"/>
<path d="M0 0 C0.56332031 0.2990625 1.12664062 0.598125 1.70703125 0.90625 C4.73825879 2.3521507 7.86411898 3.25204238 11.07421875 4.21875 C13 5 13 5 14 7 C12.7315625 6.5359375 12.7315625 6.5359375 11.4375 6.0625 C7.9502146 4.98461179 4.61822465 4.43418696 1 4 C1.33 5.98 1.66 7.96 2 10 C0.68 9.34 -0.64 8.68 -2 8 C-1.47731534 5.23723823 -0.89130413 2.6739124 0 0 Z " fill="#0A0A0A" transform="translate(140,153)"/>
<path d="M0 0 C0.66 0.99 1.32 1.98 2 3 C0.68 3 -0.64 3 -2 3 C-2.2475 3.61875 -2.495 4.2375 -2.75 4.875 C-4.26947227 7.45810285 -5.32217995 7.73547387 -8 9 C-10.06776444 10.59643578 -12.02160437 12.29138559 -14 14 C-12.4561393 10.16666407 -10.07543723 8.01691792 -7 5.3125 C-6.113125 4.52488281 -5.22625 3.73726563 -4.3125 2.92578125 C-2 1 -2 1 0 0 Z " fill="#090909" transform="translate(166,122)"/>
<path d="M0 0 C1.43088528 2.86177057 0.59991697 4.93375773 0 8 C0.99 8.66 1.98 9.32 3 10 C3.66 9.67 4.32 9.34 5 9 C4.34 10.32 3.68 11.64 3 13 C-1.875 12.125 -1.875 12.125 -3 11 C-2.40366972 3.60550459 -2.40366972 3.60550459 0 0 Z " fill="#101010" transform="translate(236,115)"/>
<path d="M0 0 C0.66 0.33 1.32 0.66 2 1 C1.01 1.33 0.02 1.66 -1 2 C-1 2.66 -1 3.32 -1 4 C-4.20010388 5.8133922 -7.13283843 6.52213974 -10.75 7.125 C-11.73484375 7.29257812 -12.7196875 7.46015625 -13.734375 7.6328125 C-14.48203125 7.75398438 -15.2296875 7.87515625 -16 8 C-13.7277937 5.39385923 -11.86062009 4.41080694 -8.5625 3.4375 C-6.16151547 2.71842341 -4.0553958 2.0295511 -1.83984375 0.84765625 C-1.23269531 0.56792969 -0.62554687 0.28820312 0 0 Z " fill="#353535" transform="translate(249,470)"/>
<path d="M0 0 C0.66 0.33 1.32 0.66 2 1 C1.67 2.65 1.34 4.3 1 6 C-0.98 6.66 -2.96 7.32 -5 8 C-4.64950425 4.75791433 -4.43778819 3.38472296 -1.9375 1.1875 C-1.298125 0.795625 -0.65875 0.40375 0 0 Z " fill="#343434" transform="translate(163,225)"/>
<path d="M0 0 C0.93045933 2.55144824 1.08564091 3.74006478 0.22265625 6.359375 C-0.16019531 7.14828125 -0.54304688 7.9371875 -0.9375 8.75 C-1.31777344 9.54921875 -1.69804687 10.3484375 -2.08984375 11.171875 C-2.39019531 11.77515625 -2.69054687 12.3784375 -3 13 C-5.31 12.67 -7.62 12.34 -10 12 C-10 11.67 -10 11.34 -10 11 C-8.35 10.67 -6.7 10.34 -5 10 C-5 8.35 -5 6.7 -5 5 C-4.01 5 -3.02 5 -2 5 C-1.34 3.35 -0.68 1.7 0 0 Z " fill="#0B0B0B" transform="translate(290,203)"/>
<path d="M0 0 C4.72463088 0.46319911 8.17057052 1.09891706 12 4 C12 4.66 12 5.32 12 6 C13.32 6.66 14.64 7.32 16 8 C11.85701333 7.40165275 8.81805623 5.99335715 5.1875 3.9375 C4.21167969 3.38964844 3.23585937 2.84179688 2.23046875 2.27734375 C1.49441406 1.85582031 0.75835937 1.43429687 0 1 C0 0.67 0 0.34 0 0 Z " fill="#1F1F1F" transform="translate(188,545)"/>
<path d="M0 0 C1 1 1 1 1.0625 3.5625 C1.041875 4.366875 1.02125 5.17125 1 6 C-1 5 -1 5 -2 2 C-2.763125 2.33 -3.52625 2.66 -4.3125 3 C-7 4 -7 4 -10 4 C-10 4.66 -10 5.32 -10 6 C-10.66 5.67 -11.32 5.34 -12 5 C-11.67 4.34 -11.34 3.68 -11 3 C-10.01 3 -9.02 3 -8 3 C-7.67 2.01 -7.34 1.02 -7 0 C-4.31633121 -1.3418344 -2.84719317 -0.73004953 0 0 Z " fill="#101010" transform="translate(165,224)"/>
<path d="M0 0 C6.06732052 1.03767051 11.4373852 2.33961901 17 5 C17 5.33 17 5.66 17 6 C10.37822074 5.69343615 5.77874846 4.25711277 0 1 C0 0.67 0 0.34 0 0 Z " fill="#222222" transform="translate(99,439)"/>
<path d="M0 0 C-2.59925496 1.19942605 -5.20345507 2.38472821 -7.8125 3.5625 C-8.55048828 3.90474609 -9.28847656 4.24699219 -10.04882812 4.59960938 C-10.76103516 4.91865234 -11.47324219 5.23769531 -12.20703125 5.56640625 C-12.8616333 5.86490479 -13.51623535 6.16340332 -14.19067383 6.47094727 C-16 7 -16 7 -19 6 C-18 4 -18 4 -15.890625 3.21875 C-15.01921875 2.9815625 -14.1478125 2.744375 -13.25 2.5 C-10.4067051 1.70501312 -7.78382295 0.90800977 -5.0625 -0.25 C-3 -1 -3 -1 0 0 Z " fill="#191919" transform="translate(274,396)"/>
<path d="M0 0 C5.91969002 1.75990784 11.41634992 4.39694605 17 7 C13.51523541 8.1615882 12.32751629 7.77669581 8.875 6.75 C7.98554687 6.49734375 7.09609375 6.2446875 6.1796875 5.984375 C5.46039063 5.65953125 4.74109375 5.3346875 4 5 C3.67 4.01 3.34 3.02 3 2 C2.01 1.67 1.02 1.34 0 1 C0 0.67 0 0.34 0 0 Z " fill="#353535" transform="translate(80,295)"/>
<path d="M0 0 C2.31 0 4.62 0 7 0 C5.68 0.33 4.36 0.66 3 1 C3 4.3 3 7.6 3 11 C2.01 10.34 1.02 9.68 0 9 C-0.29296875 6.8359375 -0.29296875 6.8359375 -0.1875 4.375 C-0.16042969 3.55773437 -0.13335937 2.74046875 -0.10546875 1.8984375 C-0.05326172 0.95871094 -0.05326172 0.95871094 0 0 Z " fill="#1C1C1C" transform="translate(176,140)"/>
<path d="M0 0 C-1.17932037 3.53796112 -2.24423609 4.19590009 -5.1875 6.375 C-8.88483592 9.15686137 -12.4683035 12.01164142 -16 15 C-14.39756933 10.7936195 -11.26602216 8.18479822 -8 5.25 C-7.4534375 4.74339844 -6.906875 4.23679687 -6.34375 3.71484375 C-2.25842318 0 -2.25842318 0 0 0 Z " fill="#515151" transform="translate(167,120)"/>
<path d="M0 0 C0.99 0 1.98 0 3 0 C2.83984375 1.85546875 2.83984375 1.85546875 2 4 C-0.43359375 5.30078125 -0.43359375 5.30078125 -3.4375 6.3125 C-4.92056641 6.83263672 -4.92056641 6.83263672 -6.43359375 7.36328125 C-9 8 -9 8 -11 7 C-9.54462432 6.16151196 -8.08559627 5.32936066 -6.625 4.5 C-5.81289062 4.0359375 -5.00078125 3.571875 -4.1640625 3.09375 C-2 2 -2 2 0 2 C0 1.34 0 0.68 0 0 Z " fill="#353535" transform="translate(242,98)"/>
<path d="M0 0 C3.44137432 1.5294997 6.2222133 3.45369552 9 6 C9 6.99 9 7.98 9 9 C10.32 9.66 11.64 10.32 13 11 C9.31446856 11 7.96240248 10.1477418 5 8 C3.3125 5.5 3.3125 5.5 2 3 C1.34 2.01 0.68 1.02 0 0 Z " fill="#202020" transform="translate(157,241)"/>
<path d="M0 0 C0.33 1.32 0.66 2.64 1 4 C3.31 4.33 5.62 4.66 8 5 C7.67 5.66 7.34 6.32 7 7 C9.97 7.495 9.97 7.495 13 8 C13 8.33 13 8.66 13 9 C7.31845765 9.45452339 4.39963479 8.66636232 0 5 C-0.33 4.01 -0.66 3.02 -1 2 C-0.67 1.34 -0.34 0.68 0 0 Z " fill="#242424" transform="translate(141,157)"/>
<path d="M0 0 C0.66 0.33 1.32 0.66 2 1 C0.625 3.5 0.625 3.5 -1 6 C-1.66 6 -2.32 6 -3 6 C-3.33 6.66 -3.66 7.32 -4 8 C-6.4375 9.6875 -6.4375 9.6875 -9 11 C-9.66 10.67 -10.32 10.34 -11 10 C-9.71034824 8.62437146 -8.37310707 7.29233607 -7 6 C-6.34 6 -5.68 6 -5 6 C-4.67 5.01 -4.34 4.02 -4 3 C-1.9375 1.3125 -1.9375 1.3125 0 0 Z " fill="#171717" transform="translate(155,109)"/>
<path d="M0 0 C0.33 0 0.66 0 1 0 C1 1.65 1 3.3 1 5 C1.33 4.01 1.66 3.02 2 2 C3.65 2.33 5.3 2.66 7 3 C6.67 3.99 6.34 4.98 6 6 C5.01 6 4.02 6 3 6 C3.33 6.99 3.66 7.98 4 9 C1 8 1 8 -0.25 5.625 C-1 3 -1 3 0 0 Z " fill="#1B1B1B" transform="translate(252,233)"/>
<path d="M0 0 C-3.45856848 2.94995547 -6.80021485 5.22675738 -11 7 C-11.66 6.67 -12.32 6.34 -13 6 C-8.86897764 1.57390462 -6.14917493 -0.34162083 0 0 Z " fill="#1F1F1F" transform="translate(304,511)"/>
<path d="M0 0 C2 0 2 0 3.625 1.5 C4.07875 1.995 4.5325 2.49 5 3 C5.99 2.34 6.98 1.68 8 1 C8.33 1.99 8.66 2.98 9 4 C8.67 4.66 8.34 5.32 8 6 C6.02 6 4.04 6 2 6 C1.34 4.02 0.68 2.04 0 0 Z " fill="#313131" transform="translate(255,239)"/>
<path d="M0 0 C0 0.33 0 0.66 0 1 C-0.89203125 1.19335938 -1.7840625 1.38671875 -2.703125 1.5859375 C-3.87359375 1.84632812 -5.0440625 2.10671875 -6.25 2.375 C-7.41015625 2.63023438 -8.5703125 2.88546875 -9.765625 3.1484375 C-12.46052401 3.85796405 -14.59525832 4.63096389 -17 6 C-17.99 5.34 -18.98 4.68 -20 4 C-13.16088115 1.44672896 -7.33813334 -0.5644718 0 0 Z " fill="#0C0C0C" transform="translate(199,92)"/>
<path d="M0 0 C6.5404266 0.51297464 9.46925843 2.46925843 14 7 C10.2397015 6.41892368 7.46964968 5.34800504 4.1875 3.4375 C3.39730469 2.98246094 2.60710937 2.52742187 1.79296875 2.05859375 C1.20128906 1.70925781 0.60960938 1.35992188 0 1 C0 0.67 0 0.34 0 0 Z " fill="#1A1A1A" transform="translate(121,511)"/>
<path d="M0 0 C0.66 0 1.32 0 2 0 C2.33 1.98 2.66 3.96 3 6 C2.01 6.33 1.02 6.66 0 7 C1.65 7 3.3 7 5 7 C5 7.33 5 7.66 5 8 C3.02 8 1.04 8 -1 8 C-1.625 5.6875 -1.625 5.6875 -2 3 C-1.34 2.01 -0.68 1.02 0 0 Z " fill="#1C1C1C" transform="translate(263,139)"/>
<path d="M0 0 C0.33 0.66 0.66 1.32 1 2 C0.34 2 -0.32 2 -1 2 C-1.33 2.99 -1.66 3.98 -2 5 C-5.71804639 7.0097548 -6.7406111 7.06484722 -11 6 C-7.37 4.02 -3.74 2.04 0 0 Z " fill="#313131" transform="translate(340,490)"/>
<path d="M0 0 C0.66 0.33 1.32 0.66 2 1 C1.67 2.65 1.34 4.3 1 6 C-2.63 6 -6.26 6 -10 6 C-10 5.67 -10 5.34 -10 5 C-9.36191406 4.89042969 -8.72382813 4.78085938 -8.06640625 4.66796875 C-7.24011719 4.50941406 -6.41382813 4.35085937 -5.5625 4.1875 C-4.32693359 3.96126953 -4.32693359 3.96126953 -3.06640625 3.73046875 C-2.38449219 3.48941406 -1.70257813 3.24835938 -1 3 C-0.67 2.01 -0.34 1.02 0 0 Z " fill="#3D3D3D" transform="translate(149,194)"/>
<path d="M0 0 C0 3.26795703 -0.57850516 5.0821948 -2 8 C-2.99 8.66 -3.98 9.32 -5 10 C-6.32 9.34 -7.64 8.68 -9 8 C-8.21625 7.938125 -7.4325 7.87625 -6.625 7.8125 C-5.75875 7.544375 -4.8925 7.27625 -4 7 C-2.75285597 4.59047977 -2.75285597 4.59047977 -2 2 C-1.34 1.34 -0.68 0.68 0 0 Z " fill="#1B1B1B" transform="translate(220,166)"/>
<path d="M0 0 C1.6045556 0.14148989 3.20863767 0.28835686 4.8125 0.4375 C5.70582031 0.51871094 6.59914062 0.59992188 7.51953125 0.68359375 C10 1 10 1 13 2 C13 2.66 13 3.32 13 4 C11.02 4 9.04 4 7 4 C7 3.34 7 2.68 7 2 C4.69 1.67 2.38 1.34 0 1 C0 0.67 0 0.34 0 0 Z " fill="#414141" transform="translate(187,275)"/>
<path d="M0 0 C0.5625 1.9375 0.5625 1.9375 1 4 C0 5 0 5 -2.72265625 5.09765625 C-4.37587891 5.08025391 -4.37587891 5.08025391 -6.0625 5.0625 C-7.16722656 5.05347656 -8.27195312 5.04445312 -9.41015625 5.03515625 C-10.69212891 5.01775391 -10.69212891 5.01775391 -12 5 C-11.67 4.34 -11.34 3.68 -11 3 C-8.41682273 2.60534792 -5.85811719 2.49193848 -3.25 2.34375 C-2.5075 2.2303125 -1.765 2.116875 -1 2 C-0.67 1.34 -0.34 0.68 0 0 Z " fill="#3D3D3D" transform="translate(289,172)"/>
<path d="M0 0 C3.33333333 3.33333333 6.66666667 6.66666667 10 10 C9.67 10.66 9.34 11.32 9 12 C8.401875 11.360625 7.80375 10.72125 7.1875 10.0625 C5.09189663 7.79689611 5.09189663 7.79689611 2 7 C0.8125 3.4375 0.8125 3.4375 0 0 Z " fill="#171717" transform="translate(189,148)"/>
<path d="M0 0 C-2.51066469 3.05906926 -4.90059933 3.75191278 -8.6875 4.6875 C-9.68136719 4.93886719 -10.67523438 5.19023438 -11.69921875 5.44921875 C-12.45847656 5.63097656 -13.21773437 5.81273437 -14 6 C-11.72698066 3.45655714 -9.54913519 2.12383563 -6.4375 0.75 C-5.65246094 0.39421875 -4.86742187 0.0384375 -4.05859375 -0.328125 C-2 -1 -2 -1 0 0 Z " fill="#3D3D3D" transform="translate(262,532)"/>
<path d="M0 0 C0.99 0.33 1.98 0.66 3 1 C1.04669132 2.03041513 -0.91281528 3.0490893 -2.875 4.0625 C-3.96554687 4.63097656 -5.05609375 5.19945312 -6.1796875 5.78515625 C-7.11039062 6.18605469 -8.04109375 6.58695312 -9 7 C-9.66 6.67 -10.32 6.34 -11 6 C-10.01 5.67 -9.02 5.34 -8 5 C-7.67 4.01 -7.34 3.02 -7 2 C-5.824375 1.7834375 -5.824375 1.7834375 -4.625 1.5625 C-2.03578982 1.12201075 -2.03578982 1.12201075 0 0 Z " fill="#171717" transform="translate(317,503)"/>
<path d="M0 0 C3.99199058 0.99799764 5.82006579 2.55799862 8 6 C3.87248551 5.39301257 0.6678852 3.96189209 -3 2 C-2.01 1.34 -1.02 0.68 0 0 Z " fill="#1B1B1B" transform="translate(189,409)"/>
<path d="M0 0 C6.66287016 1.92482916 6.66287016 1.92482916 9 5 C9.33 5.99 9.66 6.98 10 8 C6.05205855 6.32971708 3.18203882 3.8204435 0 1 C0 0.67 0 0.34 0 0 Z " fill="#1A1A1A" transform="translate(147,254)"/>
<path d="M0 0 C1.2065625 0.0309375 1.2065625 0.0309375 2.4375 0.0625 C2.4375 0.7225 2.4375 1.3825 2.4375 2.0625 C1.4475 2.5575 1.4475 2.5575 0.4375 3.0625 C-0.21463292 5.08713255 -0.21463292 5.08713255 -0.5625 7.0625 C-1.2225 7.0625 -1.8825 7.0625 -2.5625 7.0625 C-2.94383299 5.0710944 -3.27575582 3.06970923 -3.5625 1.0625 C-2.5625 0.0625 -2.5625 0.0625 0 0 Z " fill="#1E1E1E" transform="translate(240.5625,111.9375)"/>
<path d="M0 0 C0.99 0.33 1.98 0.66 3 1 C0.22920113 4.80984844 -3.62868145 5.06840752 -8 6 C-5.63055987 3.38114512 -3.16266898 1.58133449 0 0 Z " fill="#343434" transform="translate(367,476)"/>
<path d="M0 0 C3 0 3 0 5 1 C1.04 4.465 1.04 4.465 -3 8 C-3.66 7.67 -4.32 7.34 -5 7 C-5 6.01 -5 5.02 -5 4 C-3.68 4 -2.36 4 -1 4 C-0.67 2.68 -0.34 1.36 0 0 Z " fill="#0A0A0A" transform="translate(264,241)"/>
<path d="M0 0 C0.99 0 1.98 0 3 0 C3 0.66 3 1.32 3 2 C3.99 2.33 4.98 2.66 6 3 C5.01 3.495 5.01 3.495 4 4 C3.34 3.67 2.68 3.34 2 3 C1.67 4.98 1.34 6.96 1 9 C0.67 9 0.34 9 0 9 C0 6.03 0 3.06 0 0 Z " fill="#373737" transform="translate(218,83)"/>
<path d="M0 0 C0.66 0.33 1.32 0.66 2 1 C0.7934375 1.4021875 0.7934375 1.4021875 -0.4375 1.8125 C-1.283125 2.204375 -2.12875 2.59625 -3 3 C-3.33 3.99 -3.66 4.98 -4 6 C-5.65 6 -7.3 6 -9 6 C-6.45368965 3.02930459 -3.57769851 1.5224249 0 0 Z " fill="#393939" transform="translate(273,524)"/>
<path d="M0 0 C3.61138104 -0.20063228 5.95990319 -0.02673121 9 2 C10.75 4.125 10.75 4.125 12 6 C8.98782888 5.35550393 6.48344164 4.34977818 3.75 2.9375 C3.04359375 2.57527344 2.3371875 2.21304687 1.609375 1.83984375 C1.07828125 1.56269531 0.5471875 1.28554688 0 1 C0 0.67 0 0.34 0 0 Z " fill="#1B1B1B" transform="translate(66,483)"/>
<path d="M0 0 C-1.41519715 2.0343459 -2.54982123 2.90410393 -4.98046875 3.421875 C-6.98176954 3.66273952 -8.9909944 3.83532741 -11 4 C-3.77464789 -1.88732394 -3.77464789 -1.88732394 0 0 Z " fill="#1A1A1A" transform="translate(328,387)"/>
<path d="M0 0 C0.33 0 0.66 0 1 0 C1 1.65 1 3.3 1 5 C2.65 5 4.3 5 6 5 C4.68 5.99 3.36 6.98 2 8 C0.68 6.68 -0.64 5.36 -2 4 C-1.34 2.68 -0.68 1.36 0 0 Z " fill="#0B0B0B" transform="translate(152,230)"/>
<path d="M0 0 C0.78375 0.04125 1.5675 0.0825 2.375 0.125 C-0.25 5 -0.25 5 -3.625 6.125 C-4.25 4.25 -4.25 4.25 -4.625 2.125 C-2.625 0.125 -2.625 0.125 0 0 Z " fill="#3F3F3F" transform="translate(239.625,151.875)"/>
<path d="M0 0 C1.32 0 2.64 0 4 0 C4.75 1.75 4.75 1.75 5 4 C3.0625 6.25 3.0625 6.25 1 8 C1.66 6.35 2.32 4.7 3 3 C1.68 3 0.36 3 -1 3 C-0.67 2.01 -0.34 1.02 0 0 Z " fill="#222222" transform="translate(147,133)"/>
<path d="M0 0 C1.46067199 0.45082469 2.91848032 0.91093537 4.375 1.375 C5.18710938 1.63023437 5.99921875 1.88546875 6.8359375 2.1484375 C9 3 9 3 11 5 C8.69 5 6.38 5 4 5 C3.67 4.01 3.34 3.02 3 2 C2.01 1.67 1.02 1.34 0 1 C0 0.67 0 0.34 0 0 Z " fill="#2F2F2F" transform="translate(199,414)"/>
<path d="M0 0 C-0.66 0 -1.32 0 -2 0 C-2.33 1.32 -2.66 2.64 -3 4 C-3 3.34 -3 2.68 -3 2 C-3.66 2 -4.32 2 -5 2 C-4.34 3.65 -3.68 5.3 -3 7 C-3.99 6.67 -4.98 6.34 -6 6 C-6 4.02 -6 2.04 -6 0 C-3.50907189 -1.24546405 -2.58919267 -0.7767578 0 0 Z " fill="#0E0E0E" transform="translate(278,205)"/>
<path d="M0 0 C0 4.00333149 -0.93272472 6.80957758 -3.625 9.8125 C-4.07875 10.204375 -4.5325 10.59625 -5 11 C-4.54663921 6.12637153 -3.2910841 3.60957611 0 0 Z " fill="#383838" transform="translate(149,136)"/>
<path d="M0 0 C0.66 0.33 1.32 0.66 2 1 C-1.32307692 4.93846154 -1.32307692 4.93846154 -4.75 5.25 C-5.4925 5.1675 -6.235 5.085 -7 5 C-2.25 1.125 -2.25 1.125 0 0 Z " fill="#333333" transform="translate(326,497)"/>
<path d="M0 0 C2.64 0.33 5.28 0.66 8 1 C8 1.99 8 2.98 8 4 C8.99 4.33 9.98 4.66 11 5 C10.01 5.495 10.01 5.495 9 6 C6.8359375 5.00390625 6.8359375 5.00390625 4.375 3.5625 C3.55773437 3.08941406 2.74046875 2.61632812 1.8984375 2.12890625 C1.27195313 1.75636719 0.64546875 1.38382812 0 1 C0 0.67 0 0.34 0 0 Z " fill="#131313" transform="translate(163,266)"/>
<path d="M0 0 C0.66 0.33 1.32 0.66 2 1 C-2.30769231 5.92307692 -2.30769231 5.92307692 -5.8125 6.3125 C-6.8953125 6.1578125 -6.8953125 6.1578125 -8 6 C-5.54080489 3.3651481 -3.42227589 1.25483449 0 0 Z " fill="#3A3A3A" transform="translate(265,262)"/>
<path d="M0 0 C0.66 0 1.32 0 2 0 C2.33 0.66 2.66 1.32 3 2 C3.99 2.66 4.98 3.32 6 4 C5.67 4.33 5.34 4.66 5 5 C5.66 5.66 6.32 6.32 7 7 C4.625 6.6875 4.625 6.6875 2 6 C0 3 0 3 0 0 Z " fill="#222222" transform="translate(273,207)"/>
<path d="M0 0 C1.60080151 4.00200378 0.29279692 7.04556236 -1 11 C-1.66 10.67 -2.32 10.34 -3 10 C-3 8.35 -3 6.7 -3 5 C-2.34 5 -1.68 5 -1 5 C-0.67 3.35 -0.34 1.7 0 0 Z " fill="#1D1D1D" transform="translate(137,161)"/>
<path d="M0 0 C0.66 0.33 1.32 0.66 2 1 C2 1.66 2 2.32 2 3 C-4.625 6.125 -4.625 6.125 -8 5 C-7.236875 4.54625 -6.47375 4.0925 -5.6875 3.625 C-3.76367186 2.46175508 -1.87058776 1.2470585 0 0 Z " fill="#1D1D1D" transform="translate(336,432)"/>
<path d="M0 0 C1.46067199 0.45082469 2.91848032 0.91093537 4.375 1.375 C5.18710938 1.63023437 5.99921875 1.88546875 6.8359375 2.1484375 C9 3 9 3 11 5 C7.7 4.67 4.4 4.34 1 4 C0.67 2.68 0.34 1.36 0 0 Z " fill="#121212" transform="translate(108,391)"/>
<path d="M0 0 C0.99 0 1.98 0 3 0 C1.44499019 3.81684226 -1.03595495 6.19195732 -4 9 C-3.71125 8.443125 -3.4225 7.88625 -3.125 7.3125 C-1.9586747 4.91505355 -0.9660119 2.48403061 0 0 Z " fill="#1A1A1A" transform="translate(231,164)"/>
<path d="M0 0 C0.33 0.99 0.66 1.98 1 3 C-0.1875 4.5 -0.1875 4.5 -2 6 C-4.6875 6.1875 -4.6875 6.1875 -7 6 C-6 4 -6 4 -2.9375 2.875 C-1.4834375 2.441875 -1.4834375 2.441875 0 2 C0 1.34 0 0.68 0 0 Z " fill="#353535" transform="translate(395,461)"/>
<path d="M0 0 C2.97 0.495 2.97 0.495 6 1 C6 1.99 6 2.98 6 4 C6.66 4.33 7.32 4.66 8 5 C4.75791433 4.64950425 3.38472296 4.43778819 1.1875 1.9375 C0.795625 1.298125 0.40375 0.65875 0 0 Z " fill="#202020" transform="translate(168,401)"/>
<path d="M0 0 C4.455 0.99 4.455 0.99 9 2 C9 2.66 9 3.32 9 4 C6.1875 4.25 6.1875 4.25 3 4 C1.125 2 1.125 2 0 0 Z " fill="#343434" transform="translate(171,269)"/>
<path d="M0 0 C4.2742558 1.5830577 6.26531794 4.50568404 9 8 C4.12314139 6.64531705 2.51407619 4.28324091 0 0 Z " fill="#3A3A3A" transform="translate(153,239)"/>
<path d="M0 0 C0.33 1.32 0.66 2.64 1 4 C-0.98 5.32 -2.96 6.64 -5 8 C-3.62845496 5.04590299 -2.01136276 2.55991624 0 0 Z " fill="#181818" transform="translate(231,152)"/>
<path d="M0 0 C3.68754757 0.49831724 5.60490662 1.10067643 8 4 C5.69 3.67 3.38 3.34 1 3 C0.67 2.01 0.34 1.02 0 0 Z " fill="#343434" transform="translate(183,541)"/>
<path d="M0 0 C3.375 0.25 3.375 0.25 7 1 C8.4375 3.0625 8.4375 3.0625 9 5 C5.22454612 3.90931332 2.52956528 3.0916909 0 0 Z " fill="#1C1C1C" transform="translate(80,490)"/>
<path d="M0 0 C2.875 -0.125 2.875 -0.125 6 0 C8 2 8 2 8 4 C2.25 2.25 2.25 2.25 0 0 Z " fill="#1F1F1F" transform="translate(40,470)"/>
<path d="M0 0 C0.66 0.33 1.32 0.66 2 1 C0.8125 2.5 0.8125 2.5 -1 4 C-3.6875 4.1875 -3.6875 4.1875 -6 4 C-3.94766315 1.7522025 -2.99332739 0.9977758 0 0 Z " fill="#323232" transform="translate(341,363)"/>
<path d="M0 0 C1.65 0.33 3.3 0.66 5 1 C2.06171403 3.50298434 -0.17902761 4.46930939 -4 5 C-2.68 3.35 -1.36 1.7 0 0 Z " fill="#202020" transform="translate(326,302)"/>
<path d="M0 0 C0 3 0 3 -2.5 5.6875 C-3.325 6.450625 -4.15 7.21375 -5 8 C-4.64950425 4.75791433 -4.43778819 3.38472296 -1.9375 1.1875 C-1.298125 0.795625 -0.65875 0.40375 0 0 Z " fill="#1F1F1F" transform="translate(294,235)"/>
</svg>
